<svg xmlns="http://www.w3.org/2000/svg" width="131.019" height="108.6"><path id="prefix__Path_133" d="M49.161-147q-8.926 0-6.942-10.91l9.422-86.285a12.465 12.465 0 013.967-8.182 11.94 11.94 0 018.43-3.223h31.241q4.959 0 7.19 3.223t.744 8.182L76.435-157.91a14.621 14.621 0 01-4.463 7.686A11.332 11.332 0 0164.038-147zm69.168 0q-9.422 0-7.438-10.91l9.918-86.285a13.01 13.01 0 013.719-8.182 11.086 11.086 0 018.182-3.223h31.241a10 10 0 016.447 1.984 6.6 6.6 0 012.479 5.455l-.992 3.967-26.777 86.284Q142.628-147 132.71-147z" data-name="Path 133" transform="translate(-41.858 255.6)" fill="#f7f7f7"/></svg>