<svg xmlns="http://www.w3.org/2000/svg" width="56" height="56"><defs><style>.prefix__cls-2{fill:#58af32}.prefix__cls-3{fill:none;stroke:gray;stroke-width:2px}</style></defs><g id="prefix__Group_143" data-name="Group 143" transform="translate(-233 -265)"><g id="prefix__Rectangle_165" data-name="Rectangle 165" transform="translate(233 265)" fill="#fff" stroke="#c4c4c4"><rect width="56" height="56" rx="28" stroke="none"/><rect width="55" height="55" x=".5" y=".5" rx="27.5" fill="none"/></g><path id="prefix__Path_123" d="M-7789-66h24a1 1 0 001-1v-12a1 1 0 00-1-1h-3v2h2v10h-22v-2h-2v3a1 1 0 001 1z" class="prefix__cls-2" data-name="Path 123" transform="translate(8043 366.001)"/><path id="prefix__Path_128" d="M-7765-66h-24a1 1 0 01-1-1v-12a1 1 0 011-1h3v2h-2v10h22v-2h2v3a1 1 0 01-1 1z" class="prefix__cls-2" data-name="Path 128" transform="translate(8033 371.001)"/><g id="prefix__Group_142" data-name="Group 142" transform="translate(-600 -102)"><path id="prefix__Subtraction_26" d="M-7157 17h-24a1 1 0 01-1-1V4a1 1 0 011-1h24a1 1 0 011 1v12a1 1 0 01-1 1zm-23-12v10h22V5z" class="prefix__cls-2" data-name="Subtraction 26" transform="translate(8030 380)"/></g><path id="prefix__Path_124" d="M3 0a3.607 3.607 0 01-.76 2.19A3.918 3.918 0 010 3" class="prefix__cls-3" data-name="Path 124" transform="translate(251 284)"/><path id="prefix__Path_125" d="M0 0a3.607 3.607 0 00.76 2.19A3.918 3.918 0 003 3" class="prefix__cls-3" data-name="Path 125" transform="translate(267.714 284)"/><path id="prefix__Path_126" d="M3 3A3.607 3.607 0 002.24.81 3.918 3.918 0 000 0" class="prefix__cls-3" data-name="Path 126" transform="translate(251 289.143)"/><path id="prefix__Path_131" d="M3 3A3.607 3.607 0 002.24.81 3.918 3.918 0 000 0" class="prefix__cls-3" data-name="Path 131" transform="translate(247 298.143)"/><path id="prefix__Path_127" d="M0 3A3.607 3.607 0 01.76.81 3.918 3.918 0 013 0" class="prefix__cls-3" data-name="Path 127" transform="translate(267.714 289.143)"/></g></svg>