<svg xmlns="http://www.w3.org/2000/svg" width="56" height="56"><defs><style>.prefix__cls-2{fill:gray}.prefix__cls-3{fill:#58af32}.prefix__cls-5,.prefix__cls-7{fill:none}.prefix__cls-5{stroke-width:2px;stroke:gray}.prefix__cls-6{stroke:none}</style></defs><g id="prefix__Group_141" data-name="Group 141" transform="translate(-233 -265)"><g id="prefix__Rectangle_165" data-name="Rectangle 165" transform="translate(233 265)" fill="#fff" stroke="#c4c4c4"><rect width="56" height="56" class="prefix__cls-6" rx="28"/><rect width="55" height="55" x=".5" y=".5" class="prefix__cls-7" rx="27.5"/></g><g id="prefix__Group_134" data-name="Group 134" transform="translate(-608 -89)"><rect id="prefix__Rectangle_243" width="2" height="3" class="prefix__cls-2" data-name="Rectangle 243" rx="1" transform="translate(865 365)"/><rect id="prefix__Rectangle_244" width="2" height="3" class="prefix__cls-2" data-name="Rectangle 244" rx="1" transform="translate(877 365)"/><path id="prefix__Subtraction_25" d="M20.714 23.429h-4v-2h4a1 1 0 001-1v-18a1 1 0 00-1-1h-18a1 1 0 00-1 1v11.714h-2V2.428a3 3 0 013-3h18a3 3 0 013 3v18a3 3 0 01-3 3.001z" class="prefix__cls-3" data-name="Subtraction 25" transform="translate(860.286 367.571)"/><path id="prefix__Rectangle_245" d="M0 0h20v2H0z" class="prefix__cls-3" data-name="Rectangle 245" transform="translate(862 372)"/><rect id="prefix__Rectangle_246" width="4" height="2" class="prefix__cls-2" data-name="Rectangle 246" rx="1" transform="translate(864 378)"/><rect id="prefix__Rectangle_247" width="4" height="2" class="prefix__cls-2" data-name="Rectangle 247" rx="1" transform="translate(870 378)"/><rect id="prefix__Rectangle_248" width="4" height="2" class="prefix__cls-2" data-name="Rectangle 248" rx="1" transform="translate(876 378)"/><rect id="prefix__Rectangle_249" width="4" height="2" class="prefix__cls-2" data-name="Rectangle 249" rx="1" transform="translate(876 383)"/><g id="prefix__Rectangle_252" data-name="Rectangle 252" transform="translate(848 383)" stroke-width="2" stroke="#58af32" fill="none"><rect width="26" height="14" class="prefix__cls-6" rx="1"/><path d="M1 1h24v12H1z" class="prefix__cls-7"/></g><path id="prefix__Path_119" d="M3 0a3.607 3.607 0 01-.76 2.19A3.918 3.918 0 010 3" class="prefix__cls-5" data-name="Path 119" transform="translate(851 386)"/><path id="prefix__Path_122" d="M0 0a3.607 3.607 0 00.76 2.19A3.918 3.918 0 003 3" class="prefix__cls-5" data-name="Path 122" transform="translate(867.714 386)"/><path id="prefix__Path_120" d="M3 3A3.607 3.607 0 002.24.81 3.918 3.918 0 000 0" class="prefix__cls-5" data-name="Path 120" transform="translate(851 391.143)"/><path id="prefix__Path_121" d="M0 3A3.607 3.607 0 01.76.81 3.918 3.918 0 013 0" class="prefix__cls-5" data-name="Path 121" transform="translate(867.714 391.143)"/></g></g></svg>