<svg xmlns="http://www.w3.org/2000/svg" width="19.213" height="14.075"><g id="prefix__GBkyTM_tif" transform="translate(-544.163 -219.447)"><g id="prefix__Group_12" data-name="Group 12" transform="translate(544.163 219.447)"><path id="prefix__Path_33" d="M563.132 221.316v12.023c0 .135-.015.183-.171.183q-9.436-.008-18.871 0c-.156 0-.171-.048-.171-.183q.006-6.012 0-12.023a.5.5 0 01.434-.156 7.156 7.156 0 002.61-.377c.557-.214 1.089-.486 1.63-.735a4.768 4.768 0 012.8-.557 2.7 2.7 0 012.077 1.325c.012.022.026.045.058.038a2.971 2.971 0 012.77-1.4 4.707 4.707 0 011.832.461c.43.185.858.377 1.275.588a6.89 6.89 0 003.284.661.49.49 0 01.443.152zm-18.348 11.124c0 .255.033.283.276.243a13.487 13.487 0 002.358-.62 13.594 13.594 0 012.142-.615 5.207 5.207 0 011.471-.117 3.211 3.211 0 011.715.807c.071.058.138.188.224.144s.023-.177.031-.27v-.173c0-3.15-.017-6.3.015-9.449a1.579 1.579 0 00-.614-1.341 4.155 4.155 0 00-.414-.313 2.135 2.135 0 00-1.711-.3 5.62 5.62 0 00-1.188.441 9.233 9.233 0 01-3.989 1.023c-.273.005-.274.007-.274.287-.001 1.702-.042 8.54-.042 10.253zm17.449-10.289c0-.176-.051-.262-.241-.255-.146.006-.294-.018-.441-.026a8.206 8.206 0 01-2.85-.66 15.455 15.455 0 00-1.686-.7 2.394 2.394 0 00-.908-.127 2.717 2.717 0 00-1.856 1.087.837.837 0 00-.2.578q.009 5 0 10v.135c0 .045-.009.084.03.1s.068-.021.1-.043.07-.057.1-.087a3.17 3.17 0 012.76-.793 15.563 15.563 0 012.687.725 13.809 13.809 0 002.266.593c.268.046.277.037.277-.243.001-1.697-.042-9.235-.039-10.284z" data-name="Path 33" transform="translate(-543.922 -219.447)" fill="#fff"/></g></g></svg>