<svg xmlns="http://www.w3.org/2000/svg" width="99.769" height="42"><defs><style>.prefix__cls-1{fill:#58af32}.prefix__cls-2{fill:gray}</style></defs><g id="prefix__Group_145" data-name="Group 145" transform="translate(-590 -1583.828)"><g id="prefix__Group_124" data-name="Group 124" transform="translate(611.301 1317.809)"><path id="prefix__Path_109" d="M3.677 470c0-1.887 0-1.89 1.785-2.572a20.817 20.817 0 009.184-6.811 7.484 7.484 0 00.5-.737.816.816 0 00-.237-1.153.8.8 0 00-1.169.111c-.423.479-.792 1.005-1.212 1.486a18.542 18.542 0 01-12.996 6.542 18.663 18.663 0 01-15.426-5.994c-.538-.556-1-1.191-1.485-1.794s-.922-.71-1.393-.356-.505.834-.063 1.442a20.539 20.539 0 008.75 6.944c.547.232 1.1.449 1.662.642a1.188 1.188 0 01.912 1.213c0 .731.016 1.463-.006 2.194a.985.985 0 01-1.067 1.07c-.62.006-1.111-.368-1.019-1.02.183-1.3-.5-1.764-1.56-2.215a22.342 22.342 0 01-9.493-7.637 3.135 3.135 0 01.133-3.98 3.105 3.105 0 013.942-.547 5.829 5.829 0 011.386 1.5 16.862 16.862 0 0018.406 5.636 16.845 16.845 0 008.565-6.207 3.087 3.087 0 014.719-.575 3.055 3.055 0 01.375 4.057 22.3 22.3 0 01-6.882 6.385 23.761 23.761 0 01-3.62 1.79.767.767 0 00-.575.875 5.486 5.486 0 01-.007.891 1 1 0 01-1.105 1.038.974.974 0 01-1-1.061c-.016-.381-.004-.77-.004-1.157z" class="prefix__cls-1" data-name="Path 109" transform="translate(0 -164.21)"/><path id="prefix__Path_110" d="M105.38 280.829c-1.038 0-1.266-.159-1.6-1.131a12.144 12.144 0 00-11.311-8.198c-2.358-.046-3.95-1.173-4.5-3.182a3.642 3.642 0 01-.114-1.224 1.04 1.04 0 01.958-1.072 1.133 1.133 0 011.193.918 3.766 3.766 0 01.058.476 1.921 1.921 0 001.726 1.834c.428.067.863.1 1.3.13a13.926 13.926 0 0112.353 8.627 1.1 1.1 0 00.905.711 5.107 5.107 0 014.294 4.89 5.006 5.006 0 01-4.02 5.034 1.706 1.706 0 00-1.328 1.1 13.867 13.867 0 01-5.1 5.959c-.076.05-.152.1-.231.148a1.135 1.135 0 01-1.63-.279 1.083 1.083 0 01.433-1.535 13.878 13.878 0 002.509-2.115 12.1 12.1 0 002.511-4.21c.333-.963.594-1.134 1.61-1.138a2.882 2.882 0 10-.012-5.754z" class="prefix__cls-1" data-name="Path 110" transform="translate(-94.169)"/><path id="prefix__Path_111" d="M-8.8 310.4a2.959 2.959 0 00-3 2.3 2.969 2.969 0 001.91 3.332 4.1 4.1 0 001.359.117 1.178 1.178 0 011.236.88 12.413 12.413 0 005.044 6.553c.708.469.865 1.048.484 1.611a1.111 1.111 0 01-1.639.2 13.968 13.968 0 01-5.384-6.238 1.32 1.32 0 00-1.064-.9 5 5 0 01-4.184-4.9 5.039 5.039 0 013.968-5.016 1.767 1.767 0 001.377-1.118 13.932 13.932 0 016.412-6.71c.765-.4 1.427-.263 1.717.326.3.606.033 1.191-.727 1.6a12.313 12.313 0 00-5.984 7.03c-.258.769-.525.933-1.525.933z" class="prefix__cls-1" data-name="Path 111" transform="translate(-6.269 -29.575)"/><path id="prefix__Path_112" d="M92.594 446.8c-3.425 0-5.611-2.831-4.769-5.528a1.157 1.157 0 01.9-.927 1.023 1.023 0 011.026.41 1.35 1.35 0 01.163 1.112 2.226 2.226 0 102.857-1.556 6.612 6.612 0 00-.738-.142 1.154 1.154 0 01-1.026-1.237 1.079 1.079 0 011.244-.921 4.265 4.265 0 013.495 2 4.153 4.153 0 01.254 4.365 4.053 4.053 0 01-3.406 2.424z" class="prefix__cls-2" data-name="Path 112" transform="translate(-93.998 -148.392)"/><path id="prefix__Path_113" d="M74.4 384.087a1.73 1.73 0 11-3.459.046 1.726 1.726 0 011.677-1.734 1.7 1.7 0 011.782 1.688z" class="prefix__cls-2" data-name="Path 113" transform="translate(-79.583 -100.413)"/><path id="prefix__Path_114" d="M145.524 382.6a1.649 1.649 0 011.717 1.736 1.788 1.788 0 01-1.716 1.715 1.744 1.744 0 01-1.735-1.818 1.622 1.622 0 011.734-1.633z" class="prefix__cls-2" data-name="Path 114" transform="translate(-142.439 -100.59)"/></g><g id="prefix__Group_125" data-name="Group 125" transform="translate(672.301 1317.809)"><path id="prefix__Path_109-2" d="M3.677 470c0-1.887 0-1.89 1.785-2.572a20.817 20.817 0 009.184-6.811 7.484 7.484 0 00.5-.737.816.816 0 00-.237-1.153.8.8 0 00-1.169.111c-.423.479-.792 1.005-1.212 1.486a18.542 18.542 0 01-12.996 6.542 18.663 18.663 0 01-15.426-5.994c-.538-.556-1-1.191-1.485-1.794s-.922-.71-1.393-.356-.505.834-.063 1.442a20.539 20.539 0 008.75 6.944c.547.232 1.1.449 1.662.642a1.188 1.188 0 01.912 1.213c0 .731.016 1.463-.006 2.194a.985.985 0 01-1.067 1.07c-.62.006-1.111-.368-1.019-1.02.183-1.3-.5-1.764-1.56-2.215a22.342 22.342 0 01-9.493-7.637 3.135 3.135 0 01.133-3.98 3.105 3.105 0 013.942-.547 5.829 5.829 0 011.386 1.5 16.862 16.862 0 0018.406 5.636 16.845 16.845 0 008.565-6.207 3.087 3.087 0 014.719-.575 3.055 3.055 0 01.375 4.057 22.3 22.3 0 01-6.882 6.385 23.761 23.761 0 01-3.62 1.79.767.767 0 00-.575.875 5.486 5.486 0 01-.007.891 1 1 0 01-1.105 1.038.974.974 0 01-1-1.061c-.016-.381-.004-.77-.004-1.157z" class="prefix__cls-1" data-name="Path 109" transform="translate(0 -164.21)"/><path id="prefix__Path_110-2" d="M105.38 280.829c-1.038 0-1.266-.159-1.6-1.131a12.144 12.144 0 00-11.311-8.198c-2.358-.046-3.95-1.173-4.5-3.182a3.642 3.642 0 01-.114-1.224 1.04 1.04 0 01.958-1.072 1.133 1.133 0 011.193.918 3.766 3.766 0 01.058.476 1.921 1.921 0 001.726 1.834c.428.067.863.1 1.3.13a13.926 13.926 0 0112.353 8.627 1.1 1.1 0 00.905.711 5.107 5.107 0 014.294 4.89 5.006 5.006 0 01-4.02 5.034 1.706 1.706 0 00-1.328 1.1 13.867 13.867 0 01-5.1 5.959c-.076.05-.152.1-.231.148a1.135 1.135 0 01-1.63-.279 1.083 1.083 0 01.433-1.535 13.878 13.878 0 002.509-2.115 12.1 12.1 0 002.511-4.21c.333-.963.594-1.134 1.61-1.138a2.882 2.882 0 10-.012-5.754z" class="prefix__cls-1" data-name="Path 110" transform="translate(-94.169)"/><path id="prefix__Path_111-2" d="M-8.8 310.4a2.959 2.959 0 00-3 2.3 2.969 2.969 0 001.91 3.332 4.1 4.1 0 001.359.117 1.178 1.178 0 011.236.88 12.413 12.413 0 005.044 6.553c.708.469.865 1.048.484 1.611a1.111 1.111 0 01-1.639.2 13.968 13.968 0 01-5.384-6.238 1.32 1.32 0 00-1.064-.9 5 5 0 01-4.184-4.9 5.039 5.039 0 013.968-5.016 1.767 1.767 0 001.377-1.118 13.932 13.932 0 016.412-6.71c.765-.4 1.427-.263 1.717.326.3.606.033 1.191-.727 1.6a12.313 12.313 0 00-5.984 7.03c-.258.769-.525.933-1.525.933z" class="prefix__cls-1" data-name="Path 111" transform="translate(-6.269 -29.575)"/><path id="prefix__Path_112-2" d="M92.594 446.8c-3.425 0-5.611-2.831-4.769-5.528a1.157 1.157 0 01.9-.927 1.023 1.023 0 011.026.41 1.35 1.35 0 01.163 1.112 2.226 2.226 0 102.857-1.556 6.612 6.612 0 00-.738-.142 1.154 1.154 0 01-1.026-1.237 1.079 1.079 0 011.244-.921 4.265 4.265 0 013.495 2 4.153 4.153 0 01.254 4.365 4.053 4.053 0 01-3.406 2.424z" class="prefix__cls-2" data-name="Path 112" transform="translate(-93.998 -148.392)"/><path id="prefix__Path_113-2" d="M74.4 384.087a1.73 1.73 0 11-3.459.046 1.726 1.726 0 011.677-1.734 1.7 1.7 0 011.782 1.688z" class="prefix__cls-2" data-name="Path 113" transform="translate(-79.583 -100.413)"/><path id="prefix__Path_114-2" d="M145.524 382.6a1.649 1.649 0 011.717 1.736 1.788 1.788 0 01-1.716 1.715 1.744 1.744 0 01-1.735-1.818 1.622 1.622 0 011.734-1.633z" class="prefix__cls-2" data-name="Path 114" transform="translate(-142.439 -100.59)"/></g></g></svg>