<svg xmlns="http://www.w3.org/2000/svg" width="30.264" height="25.383"><g id="prefix__Group_35" data-name="Group 35" transform="translate(-255.53 -1326)"><g id="prefix__check-24px" transform="translate(258 1327)"><path id="prefix__Path_56" d="M0 0h24v24H0z" data-name="Path 56" fill="none"/><path id="prefix__Path_57" d="M9 16.17L5.53 12.7a1 1 0 10-1.41 1.41l4.18 4.18a1 1 0 001.41 0L20.29 7.71a1 1 0 00-1.41-1.41z" data-name="Path 57" fill="#58af32"/></g><g id="prefix__Union_5" data-name="Union 5" fill="none"><path d="M0 12.691a11.372 11.372 0 013.047-7.638l-.574-2.868A1 1 0 013.65 1.009l3.6.72a1.035 1.035 0 01.16.046A17.314 17.314 0 0115.133 0c8.357 0 15.131 5.682 15.131 12.691S23.49 25.383 15.133 25.383 0 19.7 0 12.691z" transform="rotate(180 142.897 675.692)"/><path d="M15.133 1.4c-2.508 0-4.962.563-7.098 1.627L7.49 3.3l-.542-.203L3.964 2.5l.455 2.28.138.688-.47.522C2.33 7.943 1.4 10.26 1.4 12.691c0 6.226 6.16 11.292 13.733 11.292 7.571 0 13.731-5.066 13.731-11.292S22.704 1.4 15.133 1.4m0-1.4c8.357 0 15.131 5.682 15.131 12.69 0 7.01-6.774 12.693-15.131 12.693C6.775 25.383 0 19.7 0 12.69c0-2.868 1.134-5.513 3.047-7.638l-.574-2.868A1 1 0 013.65 1.01l3.6.72c.056.011.11.026.16.045C9.672.647 12.313 0 15.134 0z" transform="rotate(180 142.897 675.692)" fill="#58af32"/></g></g></svg>