<svg xmlns="http://www.w3.org/2000/svg" width="18.254" height="14"><defs><style>.prefix__cls-1{fill:#fff}</style></defs><g id="prefix__Group_27" data-name="Group 27" transform="translate(-910 -4393)"><path id="prefix__Subtraction_14" d="M16.232 14H1a1 1 0 01-1-1V1a1 1 0 011-1h15.232a1 1 0 011 1v12a1 1 0 01-1 1zM1.577 1.077a.5.5 0 00-.5.5v10.847a.5.5 0 00.5.5h14.078a.5.5 0 00.5-.5V1.577a.5.5 0 00-.5-.5z" class="prefix__cls-1" data-name="Subtraction 14" transform="translate(910 4393)"/><rect id="prefix__Rectangle_144" width="9.693" height="1.077" class="prefix__cls-1" data-name="Rectangle 144" rx=".538" transform="translate(913.231 4396.231)"/><rect id="prefix__Rectangle_145" width="6.462" height="1.077" class="prefix__cls-1" data-name="Rectangle 145" rx=".538" transform="translate(913.231 4399.462)"/><rect id="prefix__Rectangle_146" width="4.308" height="1.077" class="prefix__cls-1" data-name="Rectangle 146" rx=".538" transform="translate(913.231 4402.693)"/><path id="prefix__Rectangle_147" d="M0 0h2.154v9.693H0z" class="prefix__cls-1" data-name="Rectangle 147" transform="rotate(45 -4842.12 3316.267)"/><path id="prefix__Polygon_5" d="M1.077 0l1.077 2.154H0z" class="prefix__cls-1" data-name="Polygon 5" transform="rotate(-135 1372.044 2012.58)"/></g></svg>