<svg xmlns="http://www.w3.org/2000/svg" id="prefix__rkn15g" width="96.487" height="22"><defs><style>.prefix__cls-1{fill:#bababa}</style></defs><g id="prefix__Group_15" data-name="Group 15"><path id="prefix__Path_50" d="M-776.881 1044.889c.018.4.69.406 1.074.585a1.279 1.279 0 00.211.046c.189.044.492.07.462.2-.035.153-.343.068-.528.089a1.843 1.843 0 01-1.026-.065.436.436 0 00-.406.037.156.156 0 00-.052.244 4.89 4.89 0 002.1.661c.409-.166.706.005 1.049.036.092.008.183.043.181.106s-.109.083-.2.1a2.448 2.448 0 01-.943-.013 2.164 2.164 0 00-.88-.068l.914.209c-.357.179-.357.179-1.448.116a2.46 2.46 0 001.663.347 5.562 5.562 0 011.942.093 12.84 12.84 0 001.775.2c1.977.175 3.953.356 5.936.5.971.072 1.959.056 2.939.081 2.791.072 5.586.087 8.375.165 1.826.051 3.641.244 5.477.168 1.66-.068 3.318 0 4.976.008a14.09 14.09 0 002.449-.207 4.541 4.541 0 01.67-.043c.679-.011 1.359 0 2.035-.059a2.161 2.161 0 01.925.1 3.126 3.126 0 001.034.143h2.153a1.427 1.427 0 00.95-.207.71.71 0 01.665-.054 2.6 2.6 0 001.363.1c.992-.161 2.027-.1 3.021-.239a3.237 3.237 0 01.95.055 1.811 1.811 0 00.382.056c1.7-.1 3.31.359 5.009.234a2.112 2.112 0 001.112-.234 3.629 3.629 0 011.771-.353 6.237 6.237 0 001.518-.1c-.6-.1-1.146 0-1.724-.13a13.158 13.158 0 011.4-.23 3.628 3.628 0 00-1.035-.39 4.093 4.093 0 011.505-.114c1.752-.013 3.5-.1 5.257-.031a25.243 25.243 0 002.644-.094c1.434-.094 2.892-.087 4.339-.087 1.778 0 3.531-.134 5.3-.226 1.424-.074 2.84-.164 4.251-.293.13-.012.26-.026.385-.048a.624.624 0 00.149-.071 3.128 3.128 0 00-1.611-.213 3.607 3.607 0 011.121-.086c.206.011.464-.022.485-.164s-.265-.212-.44-.188c-.831.111-1.7-.02-2.51.13a9.818 9.818 0 01-1.847.1c-.123 0-.311.012-.305-.092s.193-.079.317-.092c1.043-.1 2.114-.014 3.177-.156-.211-.123-.529-.062-.753-.2.963-.1 1.95-.047 2.93-.094-.32.039-.641.075-.958.119-.115.016-.306.011-.252.125.034.073.184.076.291.063 1.116-.144 2.289-.064 3.385-.294.314-.066.67-.064.993-.119.4-.069.862-.1.916-.438.018-.115.281-.129.46-.159 1.02-.166 1.8-.613 2.823-.736-.007-.187-.277-.085-.343-.18a.388.388 0 01.117-.056 12.165 12.165 0 001.331-.354c.138-.036.534-.1.054-.229-.268-.074-.044-.18.072-.254.142-.09.515-.106.418-.261s-.452-.108-.7-.128c-.09-.007-.18-.011-.356-.022a3.355 3.355 0 01.91-.4c.363-.1.231-.175-.011-.26a.846.846 0 00-.434-.034 23.951 23.951 0 01-3.081.162c-.16.007-.356.031-.453-.082s.025-.162.141-.223c.071-.037.135-.082.11-.141-.116-.274.274-.29.5-.245a1.611 1.611 0 001.4-.276c.074-.057.24-.065.288-.153-.184-.071-.356.023-.532.012-.089-.005-.2.018-.244-.047-.143-.2-.14-.206-.473-.209-.577 0-1.153 0-1.739-.039 1.034-.082 2.019-.259 3.089-.4-.409-.216-.832-.011-1.226-.109.483-.231 1.146-.176 1.665-.414a2.478 2.478 0 00-1.212.052 2.791 2.791 0 01-.479.1c-.309.051-.633.081-.724-.158s.31-.192.52-.24a2.893 2.893 0 00.711-.146 3.245 3.245 0 00-1.186-.244c-.131-.016-.355.008-.344-.115.008-.09.2-.086.326-.09.336-.009.5-.108.566-.295.1-.3.479-.443.936-.556a2.857 2.857 0 001.245-.489 4.288 4.288 0 00-1.427.352 3.561 3.561 0 01-2.4.005 21.821 21.821 0 012.311-.8c-1.745.133-3.428 0-5.095.141.561-.253 1.333-.088 1.879-.366-.7-.058-1.392.1-2.2.029a2.941 2.941 0 011.146-.223 17.506 17.506 0 003.34-.347l-.011-.082c-.313.008-.627.014-.94.025-.338.012-.676.028-1.013.043-.094 0-.188.017-.281.014-.2 0-.476.028-.533-.115s.292-.1.394-.195c-.063-.139-.359-.016-.454-.132.242-.172.665-.114 1.031-.267h-1.119a20.226 20.226 0 012.264-.306c.147-.02.3-.03.44-.06.16-.033.344-.08.3-.2s-.237-.125-.412-.109-.331.044-.5.06c-.124.012-.294.054-.356-.037-.2-.288-.59-.254-.987-.212-.653.07-1.339 0-1.959.064-.76.074-1.521.127-2.284.176a28.457 28.457 0 01-5.061.09c-.129-.015-.261-.025-.389-.043a.875.875 0 01-.144-.047 1.057 1.057 0 01.717-.147c2.175.047 4.331-.168 6.5-.144a6.523 6.523 0 001.466-.373l-3.711.252-.05-.1a5.718 5.718 0 011.9-.443 10.564 10.564 0 002.121-.283 9.845 9.845 0 001.468-.233c.144-.046.372-.1.324-.2-.057-.119-.308-.11-.489-.093-.651.063-1.3.136-1.949.2a2.053 2.053 0 01-.7 0 6.143 6.143 0 001.129-.2c-.149-.132-.383-.053-.582-.134a5.9 5.9 0 01.994-.1c.407-.068.909-.033 1.111-.353.1-.156.534-.077.725-.227-.247-.128-.5.019-.871-.034a9.5 9.5 0 011.247-.5c.412-.082.824-.2.883-.551-.347.047-.684.092-1.019.14-.156.022-.3.045-.353-.083-.067-.148.13-.142.261-.142a11.23 11.23 0 002.621-.685c.123-.025.156-.091.141-.161-.025-.11-.155-.044-.252-.052a10.99 10.99 0 00-1.851.317 12.239 12.239 0 01-1.621.218c-.859-.049-1.715.087-2.58-.018a11.285 11.285 0 012.183-.313c.11-.012.227-.006.339-.014.186-.013.506-.1.445-.127-.249-.116.1-.391-.408-.425a11.475 11.475 0 00-1.882-.166c-.014 0-.222.053-.1-.053a.557.557 0 01.163-.03c-.148-.083-.384 0-.536-.13a10.773 10.773 0 001.457-.173l-.772-.237a12.007 12.007 0 011.756-.316 2.685 2.685 0 00-2.077-.56 16.5 16.5 0 01-1.81-.012c-.307-.016-.5-.029-.512-.235-.007-.13-.128-.233-.384-.234s-.306.121-.321.226c-.035.257-.245.332-.677.274a19.374 19.374 0 00-2.867.17 32.733 32.733 0 01-3.7 0 13.284 13.284 0 00-1.65-.3.267.267 0 01-.3-.244c-.017-.224-.268-.268-.582-.254-1.088.051-2.171.139-3.333.1a1.694 1.694 0 00.379.424c.269.231.123.412-.348.417-.944.011-1.888.005-2.833 0-.343 0-.609-.053-.277-.286.056-.039.122-.1.107-.142-.109-.319.3-.285.594-.265a5.727 5.727 0 001.357-.124 16.192 16.192 0 00-1.7-.126c.128-.145.434-.065.549-.226-.337-.02-.659-.047-.983-.057-.178-.006-.406-.026-.384.152 0 .025-.04.06-.079.078a8.75 8.75 0 01-1.985-.052 1.416 1.416 0 00-1.176-.137 3.849 3.849 0 01-1.256.047 13.967 13.967 0 00-1.794-.039c-2.184.013-4.362-.085-6.557.03a14.821 14.821 0 01-3.833-.16 3.585 3.585 0 00-1.325.088 2.793 2.793 0 01-.679.045c-.044-.1.379-.114.127-.246a1.047 1.047 0 00-.713-.129c-.22.037-.256.1-.161.218.129.159-.083.168-.257.152-1.111-.1-2.238-.139-3.333-.3a1.189 1.189 0 00-.431-.033 1.535 1.535 0 01-1.288-.01 1 1 0 00-.543-.01 4.97 4.97 0 01-2.139.153c-1.419-.1-2.823.032-4.234.011-3.169-.048-6.34-.075-9.509-.132-3.016-.055-6.024 0-9.033.12-2.9.117-5.779.339-8.673.483a2.58 2.58 0 00-.875.278 3.742 3.742 0 01-2.635.3c-.35-.11-.618.163-1 .2.6.163.623.413.154.637a6.553 6.553 0 00-.99.518 2.117 2.117 0 01-1.1.2 11.137 11.137 0 01-2.35.014.753.753 0 00-.861.357c-.086.14.206.3.419.34a5.456 5.456 0 001.065.025c.677-.026 1.348-.106 2.031-.076a1.651 1.651 0 01.61.063c-.36.158-.851.072-1.349.285.628-.064 1.005-.007 1.11.334-.439.049-.894.105-1.352.15a.906.906 0 01-.684-.174.333.333 0 00-.549.047.637.637 0 01-.459.308c-.131.021-.131.094-.094.163a.553.553 0 01-.06.533c-.128.248.062.4.452.417.415.014.534.194.551.327.023.177-.358.17-.577.176a4.332 4.332 0 01-1.167.015c-.071-.017-.143-.041-.2 0s-.046.1.03.144c.166.089.313.17.332.32.012.1.219.1.376.081a.867.867 0 01.517 0c-.178.177-.5.082-.733.133-.182.04-.473.024-.442.189.025.138.277.124.46.126.226 0 .454 0 .678-.014.128-.008.352-.039.359-.071.072-.36.633-.256.975-.359a10.31 10.31 0 011.215-.342c.234-.042.508-.119.674.021s-.155.208-.271.308c-.441.38-1.205.32-1.825.436a8.317 8.317 0 01-2.767.11 3.678 3.678 0 00-.425 0 2.972 2.972 0 001.83.5c.9-.026 1.806-.085 2.715-.052.248.009.449.022.5.191.029.09.146.147.277.2.194.072.558.1.208.31-.126.077.095.127.217.128.263 0 .525-.017.788-.03a3.621 3.621 0 01.891-.036 33.953 33.953 0 01-3.954.321c.142-.207.41-.123.6-.158.128-.023.283-.061.268-.144-.018-.1-.2-.083-.323-.078-.378.016-.711.145-1.1.146-.108 0-.184.051-.055.1.2.077.067.121-.036.169-.145.067-.328.118-.2.26a.684.684 0 00.519.214c.841.049 1.67-.011 2.524-.042-.687.091-1.183.4-1.866.5a.772.772 0 01-.622-.169.59.59 0 00-.577-.118c-.229.082 0 .192.03.289.073.206.313.477-.439.348a.382.382 0 00-.364.123.549.549 0 00.1.75.482.482 0 00.635 0 .821.821 0 01.675-.134c.281.02.316.158.327.3a1.139 1.139 0 00.074.288c.037.1.151.213-.043.3a.954.954 0 01-.685.061c-.206-.063-.571-.139-.628-.086-.289.265-.789.236-1.179.351-.279.083-.106.231.142.284a1.743 1.743 0 00.882-.035 13.049 13.049 0 011.446-.275 1.558 1.558 0 01.442-.031c.227.022.568-.007.6.168s-.3.119-.473.156c-.146.031-.3.057-.268.172s-.022.179-.227.159a.575.575 0 01-.433-.235c-.047-.072.249-.006.3-.126-.346-.066-.681-.141-.835.15-.09.171-.481.121-.589.279.109.115.41-.078.453.079.037.135-.215.159-.371.208a4.446 4.446 0 01-.413.1c-.122.029-.356-.1-.365.041s.263.12.444.123a2.287 2.287 0 00.747-.137.956.956 0 01.869.01c.211.173.351.4-.089.623.406-.03.818-.044 1.217-.094.279-.034.571-.031.833-.073a2.028 2.028 0 011.535.354c.165.1.106.137-.057.189a2.232 2.232 0 01-.875.1 3.144 3.144 0 00-1.876.529 1.234 1.234 0 00.846-.152c.365-.293.865-.21 1.373-.22a.511.511 0 01-.063.085c-.12.1-.494 0-.478.161s.332.186.532.264.652.03.6.223c-.058.232-.52.2-.8.2a11.13 11.13 0 00-2.492.28 5.128 5.128 0 002 .121c0-.163-.237-.168-.357-.3h.9c.394 0 .59.091.53.339s-.3.3-.674.275c-.586-.041-1.174-.073-1.774-.11.015.236.4.14.5.266-.169.161-.348.041-.529.012-.322-.052-.681-.17-.7.192-.01.176-.362.181-.527.123-.474-.167-.721.019-.826.2-.118.2.172.28.526.319.6.066.144.289.073.389-.266.371-.3.368.425.45a1.3 1.3 0 01.543.158 1.238 1.238 0 00.7.17c-.083-.252.188-.272.508-.248a5.312 5.312 0 001.164.085 13.03 13.03 0 012.237-.044c.35 0 .838.049.856-.228.016-.24-.458-.19-.759-.217a5.044 5.044 0 01-2.071-.514 1.321 1.321 0 00-.794-.119 2.641 2.641 0 01-1.045-.118 5.2 5.2 0 012.614.263 5.452 5.452 0 002.142.264c.867-.07.923.408 1.181.73.04.05.1.088.062.144a.39.39 0 01-.086.083 1.093 1.093 0 01-.887.255c-.442-.05-.885-.089-1.326-.152a20.143 20.143 0 00-3.808-.194zm71.538-14.7c-.611.2-1.237.072-1.719.214a3.913 3.913 0 002.148.813 26.315 26.315 0 01-3.45.016c.257-.1.529-.009.7-.173l-.555-.023c-.656-.025-1.313-.047-1.969-.073-.174-.007-.368-.029-.393-.145-.028-.132.188-.143.346-.166a2.686 2.686 0 011.161-.028c.595.207.945-.115 1.429-.118-.766-.277-1.62.049-2.44-.147a2.148 2.148 0 011.135-.193 1 1 0 00.8-.226.348.348 0 01.542 0 1.093 1.093 0 00.73.191 9.487 9.487 0 011.535.061zm-68.5 7.3c-.245.153-.264.351-.666.348a5.672 5.672 0 00-2.144.306.658.658 0 01-.571-.02.411.411 0 01.093-.72c-.171-.1-.39-.046-.585-.06-.15-.011-.328-.008-.381-.105s.126-.146.25-.186a4.509 4.509 0 012.069-.162 3.912 3.912 0 001.534-.018c.349-.08.706-.149 1.055-.23a.905.905 0 01.67.025 3.039 3.039 0 01-1.912.468 7.452 7.452 0 00-1.452.039c-.169.043-.4.07-.342.21.052.118.275.1.436.09.624-.043 1.239.017 1.949.017zm45.122-9.053h-3.915c-.146 0-.331.015-.4-.08-.085-.116.105-.168.224-.234a1.338 1.338 0 01.756-.17 7.347 7.347 0 00.9-.043c.584-.046 1.166-.331 1.754 0a.522.522 0 00.22 0 8.815 8.815 0 012.753-.169c.416.07.483.007.69.27a5.335 5.335 0 00-1.848-.044 3.6 3.6 0 00-1.416.342c-.041.023-.038.025.285.13zm32.29 2.059c-.334.14-.753.032-1.067.212a15.2 15.2 0 011.8.022c.1.021.251.006.28.082s-.092.146-.208.174a4.562 4.562 0 01-1.547.243 21.426 21.426 0 00-2.85-.218c-.013 0-.031-.032-.067-.071a10.212 10.212 0 002.062-.17h-.369c-.752-.01-1.5.062-2.256.007-.153-.011-.318-.021-.324-.138 0-.082.1-.1.231-.1 1.139-.044 2.277-.093 3.415-.137a2.247 2.247 0 01.903.099zm-19.8.7c.127-.193.543-.131.581-.33.051-.268-.3-.341-.606-.372-.434-.044-.148-.311-.432-.387-.019-.005.076-.073.156-.07.21.007.336-.1.506-.123a2.04 2.04 0 011.281.077 1.936 1.936 0 00.97.2 11.425 11.425 0 011.642.068 9.54 9.54 0 00-1.4.189.923.923 0 01-1.02-.129c.01.174-.167.251-.346.32a.874.874 0 00.4.08c.3.055.147.2.17.3s-.01.206-.247.2a13.913 13.913 0 01-1.648-.018zm15.969-1.618a.332.332 0 01.308-.114c1.532-.043 3.04-.251 4.583-.214.123 0 .244.01.247.093a.267.267 0 01-.19.29.286.286 0 01-.257 0c-.149-.1.217-.137.107-.257a4.694 4.694 0 01-1.051 0 .6.6 0 00-.534.124c-.135.164-.309.138-.552.09-.384-.075-.747-.086-.888.213-.062.132-.288.149-.466.109-.439-.095-.869-.211-1.3-.327zm-74.148 16.6a13.73 13.73 0 013.383.092.679.679 0 01.283.1c.178.119.474.267.27.409a.806.806 0 01-.754-.063 2.852 2.852 0 00-1.4-.268 7.15 7.15 0 01-1.772-.26zm81.644-3.99a39.619 39.619 0 01-7.016.175c2.443-.143 4.744-.055 7.023-.162zm-22.36-13.819c-.4-.13-.9-.288-1.392-.458-.1-.035-.107-.126.015-.164a2.941 2.941 0 011.353-.135c.337.054.306.246.343.4.01.042.01.094.054.123.353.244.066.247-.366.245z" class="prefix__cls-1" data-name="Path 50" transform="translate(781.353 -1026.74)"/><path id="prefix__Path_51" d="M-745.951 1310.243a10.306 10.306 0 002.2-.384 2.415 2.415 0 00.575-.374.126.126 0 00.026-.207c-.008-.009-.014-.022-.024-.025-.221-.058.072-.375-.2-.4a1.105 1.105 0 00-.826.18c-.348.333-.791.271-1.175.424-.158.063-.34.066-.5.12-.131.043-.385-.047-.326.254 0 .01-.074.038-.116.053-.087.032-.247-.032-.24.12.005.125.143.172.257.2s.249.027.349.039z" class="prefix__cls-1" data-name="Path 51" transform="translate(837.178 -1290.755)"/><path id="prefix__Path_52" d="M-746.068 1334.715a6.8 6.8 0 004.617-1.06 5.416 5.416 0 01-1.56.172.41.41 0 00-.2.052 5.716 5.716 0 01-2.164.623 1.8 1.8 0 00-.693.213z" class="prefix__cls-1" data-name="Path 52" transform="translate(835.488 -1313.844)"/><path id="prefix__Path_53" d="M-568.118 1340.683c-.235-.124-.455-.336-.72-.1-.082.074-.138-.035-.185-.1a1.032 1.032 0 00-1.485.06c-.1.179.018.3.2.308a6.636 6.636 0 00.866.006c.229-.015.455-.083.683-.115.21-.024.426-.042.641-.059z" class="prefix__cls-1" data-name="Path 53" transform="translate(640.318 -1319.937)"/><path id="prefix__Path_54" d="M-654.589 1337.848a2.316 2.316 0 01-.552-.129.5.5 0 00-.558.036.42.42 0 01-.477.077.26.26 0 00-.317.037c-.038.04-.091.09-.09.134 0 .063.076.08.134.082a4.351 4.351 0 001.86-.237z" class="prefix__cls-1" data-name="Path 54" transform="translate(742.412 -1317.564)"/><path id="prefix__Path_55" d="M54.712 1105.385a.9.9 0 00.488.634.282.282 0 00.406-.15c.1-.185-.111-.205-.2-.238-.211-.076-.378-.165-.4-.417-.006-.074-.066-.141-.141-.07-.059.056-.214.016-.153.241z" class="prefix__cls-1" data-name="Path 55" transform="translate(-54.568 -1100.034)"/></g></svg>