<svg xmlns="http://www.w3.org/2000/svg" width="48.762" height="32"><defs><style>.prefix__cls-2{fill:#d4ebca}</style></defs><g id="prefix__Group_871" data-name="Group 871" transform="translate(-834 -838)"><g id="prefix__Rectangle_664" data-name="Rectangle 664" transform="translate(834 838)" fill="#fff" stroke="#58af32" stroke-width="2"><rect width="48.762" height="32" rx="4" stroke="none"/><rect width="46.762" height="30" x="1" y="1" rx="3" fill="none"/></g><rect id="prefix__Rectangle_671" width="3.048" height="3.048" class="prefix__cls-2" data-name="Rectangle 671" rx="1.524" transform="translate(840.095 854.762)"/><rect id="prefix__Rectangle_695" width="3.048" height="3.048" class="prefix__cls-2" data-name="Rectangle 695" rx="1.524" transform="translate(840.095 860.095)"/><rect id="prefix__Rectangle_694" width="22.095" height="3.048" class="prefix__cls-2" data-name="Rectangle 694" rx="1.524" transform="translate(844.667 854.762)"/><rect id="prefix__Rectangle_696" width="14.476" height="3.048" class="prefix__cls-2" data-name="Rectangle 696" rx="1.524" transform="translate(844.667 860.095)"/><path id="prefix__Polygon_22" d="M2.977 1.249a1 1 0 011.664 0l.4.6a1 1 0 00.526.4l.744.239a1 1 0 01.507 1.534l-.507.708a1 1 0 00-.187.6l.014.837a1 1 0 01-1.34.957L4.15 6.89a1 1 0 00-.68 0l-.65.235a1 1 0 01-1.34-.957l.014-.837a1 1 0 00-.187-.6L.8 4.025a1 1 0 01.505-1.535l.744-.239a1 1 0 00.526-.4z" class="prefix__cls-2" data-name="Polygon 22" transform="translate(839.714 843.333)"/><path id="prefix__Polygon_23" d="M2.977 1.249a1 1 0 011.664 0l.4.6a1 1 0 00.526.4l.744.239a1 1 0 01.507 1.534l-.507.708a1 1 0 00-.187.6l.014.837a1 1 0 01-1.34.957L4.15 6.89a1 1 0 00-.68 0l-.65.235a1 1 0 01-1.34-.957l.014-.837a1 1 0 00-.187-.6L.8 4.025a1 1 0 01.505-1.535l.744-.239a1 1 0 00.526-.4z" class="prefix__cls-2" data-name="Polygon 23" transform="translate(847.333 843.333)"/><path id="prefix__Polygon_24" d="M2.977 1.249a1 1 0 011.664 0l.4.6a1 1 0 00.526.4l.744.239a1 1 0 01.507 1.534l-.507.708a1 1 0 00-.187.6l.014.837a1 1 0 01-1.34.957L4.15 6.89a1 1 0 00-.68 0l-.65.235a1 1 0 01-1.34-.957l.014-.837a1 1 0 00-.187-.6L.8 4.025a1 1 0 01.505-1.535l.744-.239a1 1 0 00.526-.4z" class="prefix__cls-2" data-name="Polygon 24" transform="translate(854.952 843.333)"/><path id="prefix__Polygon_25" d="M2.977 1.249a1 1 0 011.664 0l.4.6a1 1 0 00.526.4l.744.239a1 1 0 01.507 1.534l-.507.708a1 1 0 00-.187.6l.014.837a1 1 0 01-1.34.957L4.15 6.89a1 1 0 00-.68 0l-.65.235a1 1 0 01-1.34-.957l.014-.837a1 1 0 00-.187-.6L.8 4.025a1 1 0 01.505-1.535l.744-.239a1 1 0 00.526-.4z" class="prefix__cls-2" data-name="Polygon 25" transform="translate(862.571 843.333)"/><path id="prefix__Polygon_26" d="M2.977 1.249a1 1 0 011.664 0l.4.6a1 1 0 00.526.4l.744.239a1 1 0 01.507 1.534l-.507.708a1 1 0 00-.187.6l.014.837a1 1 0 01-1.34.957L4.15 6.89a1 1 0 00-.68 0l-.65.235a1 1 0 01-1.34-.957l.014-.837a1 1 0 00-.187-.6L.8 4.025a1 1 0 01.505-1.535l.744-.239a1 1 0 00.526-.4z" class="prefix__cls-2" data-name="Polygon 26" transform="translate(870.19 843.333)"/></g></svg>