<svg xmlns="http://www.w3.org/2000/svg" width="48.762" height="31.999"><defs><style>.prefix__cls-1{fill:#fff}.prefix__cls-2{fill:#d4ebca}.prefix__cls-4,.prefix__cls-5{stroke:none}.prefix__cls-5{fill:#58af32}</style></defs><g id="prefix__Group_872" data-name="Group 872" transform="translate(-791 -938)"><g id="prefix__Group_865" data-name="Group 865" transform="translate(791 938)"><g id="prefix__Union_15" class="prefix__cls-1" data-name="Union 15"><path d="M3.011 24.288a2.059 2.059 0 01-1.4-.563A1.939 1.939 0 011 22.282v-2.66c0-.083.005-.165.014-.245l.012-.107-.01-.107A3.12 3.12 0 011 18.857V4c0-1.654 1.346-3 3-3h23.238c1.654 0 3 1.346 3 3v14.857c0 1.654-1.346 3-3 3H6.669l-.3.363a1.99 1.99 0 01-.369.346l-1.82 1.33c-.35.256-.754.392-1.169.392z" class="prefix__cls-4"/><path d="M3.011 23.288a.966.966 0 00.579-.199l1.82-1.33c.071-.052.134-.111.187-.176l.6-.726h21.041c1.103 0 2-.897 2-2V4c0-1.103-.897-2-2-2H4c-1.103 0-2 .897-2 2v14.857c0 .068.003.138.01.205l.022.215-.025.214a1.109 1.109 0 00-.007.13v2.661c0 .288.1.53.299.717.193.183.453.289.712.289m0 2C1.456 25.288 0 24.056 0 22.282v-2.66c0-.123.007-.242.02-.36a4.16 4.16 0 01-.02-.405V4a4 4 0 014-4h23.238a4 4 0 014 4v14.857c0 2.21-1.79 4-4 4H7.139c-.156.19-.34.364-.55.517l-1.819 1.33a2.96 2.96 0 01-1.759.584z" class="prefix__cls-5"/></g><rect id="prefix__Rectangle_671" width="19.047" height="2.286" class="prefix__cls-2" data-name="Rectangle 671" rx="1.143" transform="translate(6.095 6.095)"/><rect id="prefix__Rectangle_692" width="19.047" height="2.286" class="prefix__cls-2" data-name="Rectangle 692" rx="1.143" transform="translate(6.095 10.667)"/><rect id="prefix__Rectangle_693" width="9.905" height="2.286" class="prefix__cls-2" data-name="Rectangle 693" rx="1.143" transform="translate(6.095 15.238)"/></g><g id="prefix__Group_866" data-name="Group 866" transform="translate(808.524 944.337)"><g id="prefix__Union_15-2" class="prefix__cls-1" data-name="Union 15"><path d="M27.238 24.663H4c-1.654 0-3-1.346-3-3V6.806c0-1.654 1.346-3 3-3h20.569l.3-.363c.106-.13.23-.246.368-.347l1.821-1.33c.35-.255.754-.39 1.168-.39.968 0 2.012.766 2.012 2.004v2.66c0 .083-.005.166-.014.246l-.012.107.01.107c.011.101.016.204.016.306v14.857c0 1.654-1.346 3-3 3z" class="prefix__cls-4"/><path d="M27.238 23.663c1.103 0 2-.897 2-2V6.806c0-.069-.003-.138-.01-.205l-.022-.215.025-.214c.005-.042.007-.087.007-.131V3.38c0-.694-.592-1.005-1.012-1.005a.968.968 0 00-.578.197l-1.82 1.33a.988.988 0 00-.188.176l-.6.727H4c-1.103 0-2 .897-2 2v14.857c0 1.103.897 2 2 2h23.238m0 2H4a4 4 0 01-4-4V6.806a4 4 0 014-4h20.097c.157-.19.34-.364.55-.517l1.821-1.33a2.958 2.958 0 011.758-.583c1.556 0 3.012 1.23 3.012 3.004v2.66c0 .123-.007.243-.02.36.013.133.02.269.02.406v14.857a4 4 0 01-4 4z" class="prefix__cls-5"/></g><path id="prefix__Path_784" d="M2.523 0a2.191 2.191 0 01.952.638c.462.481.928.957 1.414 1.414A1.26 1.26 0 014.9 3.989c-.333.29-.633.619-.952.942a13.541 13.541 0 003.311 3.318c.343-.343.676-.681 1.014-1.019A1.182 1.182 0 0110 7.178q.95.9 1.847 1.852a2.834 2.834 0 01.347.638v.476c-.186.257-.362.524-.566.771-.171.2-.381.381-.566.576a2.168 2.168 0 01-1.1.614l-.338.086h-.861l-.109-.043a16.317 16.317 0 01-1.723-.514 12.122 12.122 0 01-4.142-3.052A10.852 10.852 0 01.267 4.46C.148 4.094.086 3.708 0 3.332v-.714a4.06 4.06 0 01.328-.976A4.739 4.739 0 012.047 0z" data-name="Path 784" transform="translate(9.905 8.139)" stroke="#fff" fill="#d4ebca"/></g></g></svg>