<svg xmlns="http://www.w3.org/2000/svg" width="140" height="125.002"><defs><style>.prefix__cls-1{fill:#58af32}.prefix__cls-2{fill:#fff}.prefix__cls-3{fill:#d0d0d0}</style></defs><g id="prefix__Group_151" data-name="Group 151" transform="translate(-851 -1608)"><rect id="prefix__Rectangle_260" width="140" height="120" class="prefix__cls-1" data-name="Rectangle 260" rx="4" transform="translate(851 1608)"/><rect id="prefix__Rectangle_261" width="136.854" height="116.471" class="prefix__cls-2" data-name="Rectangle 261" rx="2" transform="translate(852.573 1609.765)"/><path id="prefix__Rectangle_262" d="M0 0h140v2H0z" class="prefix__cls-1" data-name="Rectangle 262" transform="translate(851 1620)"/><path id="prefix__Rectangle_263" d="M0 0h44v8H0z" class="prefix__cls-3" data-name="Rectangle 263" transform="translate(873 1642)"/><rect id="prefix__Rectangle_267" width="44" height="16" class="prefix__cls-1" data-name="Rectangle 267" rx="8" transform="translate(925 1700)"/><path id="prefix__Rectangle_264" d="M0 0h96v6H0z" class="prefix__cls-3" data-name="Rectangle 264" transform="translate(873 1660)"/><path id="prefix__Rectangle_265" d="M0 0h96v6H0z" class="prefix__cls-3" data-name="Rectangle 265" transform="translate(873 1672)"/><path id="prefix__Rectangle_266" d="M0 0h59v6H0z" class="prefix__cls-3" data-name="Rectangle 266" transform="translate(873 1684)"/><g id="prefix__Group_286" data-name="Group 286" transform="translate(66.002 -12312)"><g id="prefix__pointer" transform="translate(870.958 14015)"><path id="prefix__Path_10120" d="M13 2a3.016 3.016 0 00-3 3v11.813l-.656-.687-.25-.219a2.961 2.961 0 10-4.187 4.188v.031l8.188 8.094.063.031.031.063a8.307 8.307 0 005 1.688h1.719a8.171 8.171 0 008.192-8.187V14a3.016 3.016 0 00-3-3 2.9 2.9 0 00-1.187.281A3.021 3.021 0 0021 9a2.984 2.984 0 00-2 .781A2.984 2.984 0 0017 9a2.95 2.95 0 00-1 .188V5a3.016 3.016 0 00-3-3zm0 2a1 1 0 011 1v11h2v-4a1 1 0 012 0v4h2v-4a1 1 0 012 0v4h2.094v-2a1 1 0 012 0v7.813A6.128 6.128 0 0119.906 28h-1.718a6.222 6.222 0 01-3.781-1.312l-8.094-8a.875.875 0 010-1.375.875.875 0 011.375 0L12 21.625V5a1 1 0 011-1z" data-name="Path 10120"/></g><path id="prefix__Path_10121" d="M13 4a1 1 0 011 1v11h2v-4a1 1 0 012 0v4h2v-4a1 1 0 012 0v4h2.094v-2a1 1 0 012 0v7.813A6.128 6.128 0 0119.906 28h-1.718a6.222 6.222 0 01-3.781-1.312l-8.094-8a.875.875 0 010-1.375.875.875 0 011.375 0L12 21.625V5a1 1 0 011-1z" class="prefix__cls-2" data-name="Path 10121" transform="translate(870.958 14015)"/></g><circle id="prefix__Ellipse_38" cx="2" cy="2" r="2" class="prefix__cls-3" data-name="Ellipse 38" transform="translate(856 1613)"/><circle id="prefix__Ellipse_39" cx="2" cy="2" r="2" class="prefix__cls-3" data-name="Ellipse 39" transform="translate(862 1613)"/><circle id="prefix__Ellipse_40" cx="2" cy="2" r="2" class="prefix__cls-3" data-name="Ellipse 40" transform="translate(868 1613)"/></g></svg>