<svg xmlns="http://www.w3.org/2000/svg" width="31.001" height="19.002"><defs><style>.prefix__cls-1{fill:#58af32}.prefix__cls-2{fill:none;stroke:gray;stroke-width:2px}</style></defs><g id="prefix__Group_229" data-name="Group 229" transform="translate(-182 -1868.999)"><path id="prefix__Path_186" d="M-7789-66h24a1 1 0 001-1v-12a1 1 0 00-1-1h-3v2h2v10h-22v-2h-2v3a1 1 0 001 1z" class="prefix__cls-1" data-name="Path 186" transform="translate(7977 1954.001)"/><g id="prefix__Group_228" data-name="Group 228" transform="translate(-666 1486)"><path id="prefix__Subtraction_26" d="M-7157 17h-24a1 1 0 01-1-1V4a1 1 0 011-1h24a1 1 0 011 1v12a1 1 0 01-1 1zm-23-12v10h22V5z" class="prefix__cls-1" data-name="Subtraction 26" transform="translate(8030 380)"/></g><path id="prefix__Path_187" d="M3 0a3.607 3.607 0 01-.76 2.19A3.918 3.918 0 010 3" class="prefix__cls-2" data-name="Path 187" transform="translate(185 1872)"/><path id="prefix__Path_188" d="M0 0a3.607 3.607 0 00.76 2.19A3.918 3.918 0 003 3" class="prefix__cls-2" data-name="Path 188" transform="translate(201.714 1872)"/><path id="prefix__Path_189" d="M3 3A3.607 3.607 0 002.24.81 3.918 3.918 0 000 0" class="prefix__cls-2" data-name="Path 189" transform="translate(185 1877.143)"/><path id="prefix__Path_190" d="M0 3A3.607 3.607 0 01.76.81 3.918 3.918 0 013 0" class="prefix__cls-2" data-name="Path 190" transform="translate(201.714 1877.143)"/></g></svg>