<svg xmlns="http://www.w3.org/2000/svg" width="200" height="42.581"><defs><style>.prefix__cls-2{fill:#4b962b}.prefix__cls-3{fill:#58af32}</style></defs><g id="prefix__Group_1" data-name="Group 1" transform="translate(-263.336 -274.124)"><path id="prefix__Path_203" d="M6.5 2.5a5.545 5.545 0 01-2.159-.4A4.623 4.623 0 012.706.977 5.2 5.2 0 011.671-.691a5.666 5.666 0 01-.371-2.07 4.874 4.874 0 012.319-4.282q2.317-1.544 7.476-2.071a2.935 2.935 0 00-.684-1.843 2.647 2.647 0 00-2.053-.684 6.218 6.218 0 00-2.229.421 16.2 16.2 0 00-2.369 1.158l-1.86-3.4a18.25 18.25 0 013.527-1.65 11.984 11.984 0 013.914-.632 6.665 6.665 0 015.142 1.913q1.772 1.913 1.772 5.949v9.964h-4.213l-.351-1.79h-.14A11.139 11.139 0 019.2 1.889a5.958 5.958 0 01-2.7.611zm1.755-4a2.839 2.839 0 001.509-.386 7.377 7.377 0 001.334-1.088v-3.052A9.345 9.345 0 007.3-4.9a2.121 2.121 0 00-1.049 1.753A1.45 1.45 0 006.795-1.9a2.39 2.39 0 001.457.4zM20.61 2.08v-17.407h5.9l2.169 5.967q.351 1.053.649 2.018t.579 1.878h.14q.316-.913.632-1.878t.632-2.018l2.036-5.967h5.862V2.082h-4.563v-4.457q0-.7.053-1.685t.14-2.036q.088-1.053.175-2.053t.158-1.737h-.14q-.386 1.158-.842 2.457t-.842 2.422L31.312.573H28.5l-2.067-5.581q-.386-1.123-.86-2.439t-.86-2.439h-.14q.07.737.158 1.737t.175 2.049q.088 1.053.158 2.036t.07 1.685v4.461zM45.7 8.891a9.052 9.052 0 01-1.367-.091 6.71 6.71 0 01-1.088-.263l.913-3.931q.246.07.562.14a2.755 2.755 0 00.6.07 2.89 2.89 0 002-.632 3.861 3.861 0 001.053-1.65l.246-.913-6.7-16.953h5.195L49.6-7.851q.386 1.193.7 2.422t.667 2.529h.14q.281-1.228.579-2.474t.614-2.477l2.106-7.476h4.949L53.319 2.258A23.491 23.491 0 0152 5.153a8.06 8.06 0 01-1.579 2.071 6.087 6.087 0 01-2.034 1.246 7.748 7.748 0 01-2.687.421zM61.5 2.5a5.2 5.2 0 01-1.091-.1 7.746 7.746 0 01-.983-.281l.842-4.633a2.772 2.772 0 00.421.105 2.78 2.78 0 00.456.035 1.562 1.562 0 001.211-.579 3.809 3.809 0 00.684-2.018q.351-2.6.614-5.16t.579-5.195h12.848V2.082h-5.16V-11.29h-3.615q-.246 1.93-.474 3.878t-.509 3.878a8.119 8.119 0 01-1.86 4.493A5.156 5.156 0 0161.5 2.5zm27.9 0a9.691 9.691 0 01-3.475-.614A8.008 8.008 0 0183.118.1a8.185 8.185 0 01-1.86-2.861 10.431 10.431 0 01-.667-3.861 9.9 9.9 0 01.7-3.808 9.011 9.011 0 011.843-2.878 8.01 8.01 0 012.615-1.808 7.676 7.676 0 013.054-.632 7.765 7.765 0 013.247.632 6.412 6.412 0 012.317 1.755 7.44 7.44 0 011.386 2.65 11.539 11.539 0 01.456 3.317 12.089 12.089 0 01-.07 1.334q-.07.632-.14.948H85.575a4.262 4.262 0 001.562 2.79 4.851 4.851 0 002.966.9 7.165 7.165 0 003.756-1.158L95.578.538a11.434 11.434 0 01-2.966 1.439A10.422 10.422 0 0189.4 2.5zM85.539-8.518h6.283a3.95 3.95 0 00-.667-2.387 2.6 2.6 0 00-2.246-.913 3.193 3.193 0 00-2.159.807 4.057 4.057 0 00-1.211 2.493zm14.25 10.6v-17.409h5.16V-8.9h1.79l1.509-3.194a10.088 10.088 0 011.088-1.808 4.474 4.474 0 011.246-1.123 4.7 4.7 0 011.457-.562 8.608 8.608 0 011.72-.158 3.844 3.844 0 011.4.246l-.807 4.773a2.17 2.17 0 00-.333-.105 1.534 1.534 0 00-.333-.035 2.274 2.274 0 00-1.193.316 3.1 3.1 0 00-1.018 1.439l-.913 2.071 5.862 9.126h-5.651l-4-6.95h-1.825v6.95zm25.833.421a9.173 9.173 0 01-3.387-.614 7.879 7.879 0 01-2.72-1.772 8.226 8.226 0 01-1.825-2.861 10.57 10.57 0 01-.667-3.878 9.675 9.675 0 01.737-3.878 8.4 8.4 0 011.983-2.861 8.625 8.625 0 012.9-1.772 9.778 9.778 0 013.44-.614 7.3 7.3 0 012.861.526 9.013 9.013 0 012.229 1.334l-2.422 3.334a3.758 3.758 0 00-2.352-1.018 3.642 3.642 0 00-2.983 1.334 5.552 5.552 0 00-1.088 3.615 5.492 5.492 0 001.106 3.615 3.473 3.473 0 002.79 1.334 3.818 3.818 0 001.632-.369 8.4 8.4 0 001.492-.9l2.031 3.375a7.884 7.884 0 01-2.808 1.6 9.814 9.814 0 01-2.949.467z" data-name="Path 203" transform="translate(331.957 302.168)" fill="#333"/><g id="prefix__amulex_simple_ru" transform="translate(263.336 274.124)"><path id="prefix__Subtraction_1" d="M4.4 42.58l10.708-18.3L0 18.094l16.088 4.512L29.312 0l30.517 42.579-41.057-16.8L10.63 35.3l9.808-11.472 27.087 7.6L29.312 13.45V8.142L4.405 42.578z" class="prefix__cls-2" data-name="Subtraction 1"/><g id="prefix__Group_4" data-name="Group 4"><path id="prefix__Path_40" d="M7.3 42.58L32.209 8.142V0z" class="prefix__cls-3" data-name="Path 40" transform="translate(-2.897)"/><path id="prefix__Path_41" d="M48.6 13.5v5.306l18.214 17.973z" class="prefix__cls-3" data-name="Path 41" transform="translate(-19.288 -5.358)"/><path id="prefix__Path_42" d="M0 30l51.386 17.551 8.444 6.936" class="prefix__cls-3" data-name="Path 42" transform="translate(0 -11.907)"/><path id="prefix__Path_43" d="M7.3 47.938l24.909-29.132V13.5z" class="prefix__cls-2" data-name="Path 43" transform="translate(-2.897 -5.358)"/></g></g></g></svg>