<svg xmlns="http://www.w3.org/2000/svg" width="108.619" height="99.063"><defs><linearGradient id="prefix__linear-gradient" x1=".5" x2=".5" y1=".037" y2="1" gradientUnits="objectBoundingBox"><stop offset="0" stop-color="#4da1e8"/><stop offset="1" stop-color="#b9dffd"/></linearGradient><linearGradient id="prefix__linear-gradient-2" x1=".454" x2=".5" y1=".088" y2="1" gradientUnits="objectBoundingBox"><stop offset="0" stop-color="#fd7979"/><stop offset="1" stop-color="#9d1b1b"/></linearGradient><linearGradient id="prefix__linear-gradient-3" x1=".381" x2=".451" y1=".388" y2="1" gradientUnits="objectBoundingBox"><stop offset="0" stop-color="#ff7979"/><stop offset="1" stop-color="#fab0b0"/></linearGradient><linearGradient id="prefix__linear-gradient-4" x1=".734" x2=".106" y1=".297" y2="1" gradientUnits="objectBoundingBox"><stop offset="0" stop-color="#fdd17f"/><stop offset="1" stop-color="#e6ad42"/></linearGradient><style>.prefix__cls-3{fill:#fff}.prefix__cls-7{fill:#ffeccc}</style></defs><g id="prefix__Group_936" data-name="Group 936" transform="translate(-979.209 -2161.937)"><g id="prefix__Group_935" data-name="Group 935"><g id="prefix__Ellipse_105" fill="#fff" stroke="#e5e5e5" data-name="Ellipse 105" transform="translate(986 2165)"><circle cx="48" cy="48" r="48" stroke="none"/><circle cx="48" cy="48" r="47.5" fill="none"/></g><g id="prefix__Group_923" data-name="Group 923" transform="translate(0 -102)"><g id="prefix__Group_918" data-name="Group 918" transform="translate(-172 3)"><path id="prefix__Union_29" fill="#e5e5e5" d="M1605.283-5061.716h-40v-37H1557l27.767-22.373 28.8 22.373h-8.286v37zm-30-13h20v-13h-20z" data-name="Union 29" transform="translate(-379.284 7399.716)"/><path id="prefix__Path_2684" d="M-356.957 7398.129l7.063 18.424-13.5 11.562 14.765 21.451-16.193 16.922 19.822-16.922-13.507-21.451 12.405-11.562-9.186-24.977z" class="prefix__cls-3" data-name="Path 2684" transform="translate(1560 -5120)"/></g><path id="prefix__Rectangle_781" d="M0 0h23v14H0z" class="prefix__cls-3" data-name="Rectangle 781" transform="translate(1023 2315)"/></g></g><g id="prefix__Group_920" data-name="Group 920" transform="translate(488.387 147.805)"><path id="prefix__Path_2597" fill="#70b5ee" d="M-1.482.834H13.76l14.555 1.587-1.537 11.607-1.2 25.339a59.077 59.077 0 01-10.908-7.574c-5.937-5.1-11.2-15.725-11.2-15.725z" data-name="Path 2597" transform="translate(498.783 2067.817)"/><path id="prefix__Path_2598" fill="#fdd17f" d="M-4210.179 8903.816c6.278-.109 8.881 2.043 12.232 7.455s3.312 22.318 3.312 22.318-3.788 10.648-12.813 10.262-18.263-4.112-18.263-4.112-.708 2.006-1.279-8.115 3.931-19.918 3.931-19.918 6.603-7.781 12.88-7.89z" data-name="Path 2598" transform="translate(4791.302 -6882.242)"/><path id="prefix__Path_2689" fill="url(#prefix__linear-gradient)" d="M1073.28-5230.214c-3.347-1.739-2.631-24.271-.979-30.669s16.186-10.891 22.55-11.093 18.622 2.792 20.773 8.643-.162 29.046-3.663 31.575c-2 1.442-11.508-1.229-19.315-3.792-7.96 3.31-16.019 7.074-19.366 5.336zm31.036-9.138l.2-1.312c-.575.255-1.282.568-2.1.927zm-23.606-17.086l1.1 16.2.366-.094 1.1-3.28 6.538 1.324 15.567-3.986 1.848-12.011s-13.125 3.151-14.844 0a1.929 1.929 0 01-.2-1.06z" data-name="Path 2689" transform="translate(-580.093 7329.14)"/><path id="prefix__Path_2600" d="M8.388 0C-1.812.025-.065 8.57.423 10.242s2.09 13.824 2.09 13.824l18.6-2.23-2.33-11.915S18.588-.025 8.388 0z" class="prefix__cls-7" data-name="Path 2600" transform="rotate(-173 324.4 1009.24)"/><path id="prefix__Path_2601" d="M-4307.372 8933.429c-4.9-.673-7.949-14.69-7.56-16.448s3.19-10.658 3.19-10.658l11.292-.477 3.786 11.946s-2.963 16.852-10.708 15.637z" class="prefix__cls-7" data-name="Path 2601" transform="translate(4883.252 -6880.538)"/><path id="prefix__Path_2605" fill="url(#prefix__linear-gradient-2)" d="M-4221.857 8979.8l4.6 11.418-.832 15.647-3.768 11.342a69.035 69.035 0 0012.244-8.314 38.428 38.428 0 007.646-9.74l.561-2.487 7.9-19.556z" data-name="Path 2605" transform="translate(4787.733 -6910.524)"/><path id="prefix__Path_2596" d="M-4313.383 8944.927l-2.587 9.988s-6.728 5.415 3.63 4.833 3.768-4.833 3.768-4.833l-2.208-10.5z" class="prefix__cls-7" data-name="Path 2596" transform="translate(4826.808 -6897.697)"/><path id="prefix__Path_2607" d="M-4327.378 9005.205s-4.887-3.038-7.755-2.577-3.717 3.523-3.717 4.425 5.084-.633 5.084-.633l5.847 1.494" class="prefix__cls-7" data-name="Path 2607" transform="translate(4830.351 -6919.841)"/><path id="prefix__Path_2608" d="M0 1.057L2.362 0l.283 3.779-2.1-.012" class="prefix__cls-7" data-name="Path 2608" transform="rotate(14 -8220.683 3170.818)"/><path id="prefix__Path_2610" fill="url(#prefix__linear-gradient-3)" d="M-4229.25 8970.818c3.357-4.249 26.057-6.283 29.939-3.863s7.911 19.576 4.843 25.406-24.152-.76-24.152-.76l3.629-2.576 15.087-.892V8975.8l-24.278 1.745 2.221 14.459 20.094-10.6v5.629s-21.069 16.036-24.579 13.739-6.16-25.705-2.804-29.954z" data-name="Path 2610" transform="translate(4792.022 -6904.883)"/><path id="prefix__Path_2611" d="M-4205.53 8975.826c4.708-1.115 6.045-15.6 6.045-15.6s-1.319-.121-2.335-3.05a57.454 57.454 0 01-1.73-8.665h-2.771l-2.669 13.874s-1.248 14.556 3.46 13.441z" class="prefix__cls-7" data-name="Path 2611" transform="translate(4782.826 -6899.26)"/><path id="prefix__Path_2612" d="M-4183.3 8993.622c1.7-1.293 9.709-1.936 9.388-.547s-4.369 1.626-6.073 2.918a4.266 4.266 0 01-3.314.918s-1.701-1.997-.001-3.289z" class="prefix__cls-7" data-name="Path 2612" transform="translate(4773.342 -6915.927)"/><path id="prefix__Path_2613" d="M-4210.008 9002.712l-6.209-.342.514 3.139h4.589l4.352-1.235z" class="prefix__cls-7" data-name="Path 2613" transform="translate(4785.587 -6919.763)"/><path id="prefix__Path_2690" fill="url(#prefix__linear-gradient-4)" d="M-4205.844 8907.65c0 3.318-5.155 7.742-12.562 11.52s-14.937 4.158-17.066 3.584 5.738-4.627 14.128-12.992 15.5-5.427 15.5-2.112z" data-name="Path 2690" transform="translate(4792.62 -6883.983)"/><path id="prefix__Path_2692" fill="gray" d="M2.968 13.554C2.418 11.849.857 5.608.857 5.608s-3.345 24.555 10.554 18.661 11.253-9.8 7.878-20.925l-2.174 8.972s-4.557-.706-7.7-.983-6.447 2.221-6.447 2.221z" data-name="Path 2692" transform="rotate(-173 324.601 1004.869)"/></g></g></svg>