<svg xmlns="http://www.w3.org/2000/svg" xmlns:xlink="http://www.w3.org/1999/xlink" width="96" height="104.408" viewBox="0 0 96 104.408">
  <defs>
    <linearGradient id="linear-gradient" x1="0.5" y1="0.037" x2="0.401" y2="0.974" gradientUnits="objectBoundingBox">
      <stop offset="0" stop-color="#4da1e8"/>
      <stop offset="1" stop-color="#b9dffd"/>
    </linearGradient>
  </defs>
  <g id="Ответы" transform="translate(-678 -2156.592)">
    <g id="Эллипс_102" transform="translate(678 2165)">
      <circle id="Эллипс_113" data-name="Эллипс 113" cx="48" cy="48" r="48" fill="#fff"/>
      <circle id="Эллипс_114" data-name="Эллипс 114" cx="47.5" cy="47.5" r="47.5" transform="translate(0.5 0.5)" fill="none" stroke="#e5e5e5" stroke-width="1"/>
    </g>
    <g id="Сгруппировать_916" transform="translate(242 60.756)">
      <path id="Контур_2671" d="M461.2,2129.8c-.1-2.9,1.8-15.6,3.3-17.3,1.6-1.7.3,5.9,1.3,8.3.7,1.6,2-.5,3.8,3.5.7,1.5-1.6,2.9-2.5,4-1.3,1.5-1.8,2.3-1.8,2.9.1,2.9-.5,1.1-.5,1.1S461.2,2132.7,461.2,2129.8Z" fill="#ffeccc"/>
      <path id="Контур_2674" d="M466.5,2149.3l16.6-1.5h18.2l-1.6,42.5-27.4-2.7Z" fill="#7abaf0"/>
      <path id="Контур_2672" d="M503.5,2173.5c-2.6.5-9,4.8-7.5,5.7s-2.4,6.4.2,5.9,7.9-7.9,7.9-7.9S506.1,2173,503.5,2173.5Z" fill="#ffeccc"/>
      <path id="Контур_2688" d="M499.5,2174.5l3.3-11.3-2.4-7.5s-14.9.5-17.4-4.3l-.3-.6-15,2.6s.8,10.2-.6,12.4-8.6,1.5-10.1-4.4,2.9-13.4,5.1-17.1,9.9-9.6,20.9-10,19,3.4,22.2,6.5,5.9,14.2,5.7,20.9-4.4,15.3-7.3,18.5a1.525,1.525,0,0,1-1.2.7C500.4,2180.8,499.5,2174.5,499.5,2174.5Z" fill="url(#linear-gradient)"/>
      <path id="Контур_2673" d="M481.9,2125.4l-1.8,10.2s-5.2,4.5,4.6,4.1c9.8-.5,3.5-4.8,3.5-4.8l-3.5-10.3Z" fill="#ffeccc"/>
      <path id="Контур_2676" d="M483.5,2130.1c-6.7.6-9.3-8.1-9-9.9s.9-14.5.9-14.5l19,.7-1.3,12.5S490.2,2129.4,483.5,2130.1Z" fill="#ffeccc"/>
      <path id="Контур_2677" d="M476.2,2107.8c-.4,1.7-1.5,10.1-1.5,10.1s-5.4-26.2,9-21.5,12.1,8.8,9.7,20.2l-2.9-8.7s-4.5,1.1-7.6,1.6S476.2,2107.8,476.2,2107.8Z" fill="gray"/>
      <path id="Контур_2679" d="M472.8,2187.5l26.2,2.6v6.9a63.254,63.254,0,0,1-13,2.3,55.009,55.009,0,0,1-12.8-1.2Z" fill="#707070"/>
      <path id="Контур_2682" d="M456.7,2162.4c1.8,8.8,8.8,6.9,10.8,2.9s-.9-33.9-.9-33.9-6.6-1.6-6.8-1S454.9,2153.6,456.7,2162.4Z" fill="#b7defc"/>
    </g>
  </g>
</svg>
