<svg xmlns="http://www.w3.org/2000/svg" width="96" height="105.709" viewBox="0 0 96 105.709">
  <g id="Ответы" transform="translate(-678 -2155.422)">
    <g id="Ellipse_102" data-name="Ellipse 102" transform="translate(678 2165)" fill="#fff" stroke="#e5e5e5" stroke-width="1">
      <circle cx="48" cy="48" r="48" stroke="none"/>
      <circle cx="48" cy="48" r="47.5" fill="none"/>
    </g>
    <path id="Path_2671" data-name="Path 2671" d="M1.016,7.507C3.3,5.774,14.218.477,16.962.033s-4.569,3.728-5.947,5.962c-.9,1.466,1.54,1.347-.585,5.1-.837,1.477-3.312.45-4.756.31-1.972-.19-2.944-.094-3.425.27-2.285,1.733-1.234.245-1.234.245S-1.27,9.238,1.016,7.507Z" transform="matrix(0.588, -0.809, 0.809, 0.588, 696.485, 2186.979)" fill="#ffeccc"/>
    <path id="Path_2674" data-name="Path 2674" d="M0,0H16.7L34.793,1.583,29.461,43.83,2.421,38.761Z" transform="matrix(0.996, -0.087, 0.087, 0.996, 708.475, 2210.044)" fill="#7abaf0"/>
    <path id="Path_2688" data-name="Path 2688" d="M1360.255-5144.127l3.338-11.293-2.432-7.465s-14.889.461-17.389-4.278a3.331,3.331,0,0,1-.258-.646l-15.046,2.553s.839,10.153-.591,12.354-8.6,1.475-10.133-4.416,2.856-13.414,5.115-17.111,9.867-9.649,20.914-10.006,19,3.441,22.151,6.541,5.936,14.246,5.749,20.864-4.435,15.321-7.288,18.547a1.7,1.7,0,0,1-1.207.707C1361.167-5137.777,1360.255-5144.127,1360.255-5144.127Z" transform="translate(-618.733 7379.351)" fill="#7abaf0"/>
    <path id="Path_2672" data-name="Path 2672" d="M5.564,3.041c2.113,1.6,4.627,3.469,4.229,1.748S16.169,2.25,14.056.649,6.111-.725,6.111-.725,3.45,1.439,5.564,3.041Z" transform="translate(748.154 2235.854) rotate(132)" fill="#ffeccc"/>
    <path id="Path_2673" data-name="Path 2673" d="M17.716.563l-2.7,10.024s-5.541,4.062,4.24,4.464,3.867-4.464,3.867-4.464L20.569,0Z" transform="matrix(0.996, -0.087, 0.087, 0.996, 706.212, 2187.109)" fill="#ffeccc"/>
    <path id="Path_2676" data-name="Path 2676" d="M8.148,24.977c-6.76.059-8.566-8.894-8.071-10.629S2.194,0,2.194,0L21.04,2.315,18.681,14.681S14.908,24.918,8.148,24.977Z" transform="matrix(0.996, -0.087, 0.087, 0.996, 715.198, 2166.677)" fill="#ffeccc"/>
    <path id="Path_2677" data-name="Path 2677" d="M4.364,9.223c-.55,1.706-2.757,13.555-2.757,13.555s-2.7-30.163,11.2-24.269,11.253,9.8,7.878,20.925L18.51,10.461s-4.557.706-7.7.983S4.364,9.223,4.364,9.223Z" transform="matrix(0.996, -0.087, 0.087, 0.996, 713.088, 2159.706)" fill="gray"/>
    <path id="Path_2679" data-name="Path 2679" d="M.35,0,26.185,4.855l-.6,6.868a59.943,59.943,0,0,1-13.171,1.139A54.628,54.628,0,0,1-.231,10.556Z" transform="matrix(0.996, -0.087, 0.087, 0.996, 714.483, 2248.259)" fill="#707070"/>
    <path id="Path_2682" data-name="Path 2682" d="M5.287,32.48c4.032,8.066,10.244,4.379,11.161,0S6.81,0,6.81,0,0,.207,0,.767,1.255,24.414,5.287,32.48Z" transform="matrix(0.966, 0.259, -0.259, 0.966, 701.965, 2190.439)" fill="#b7defc"/>
  </g>
</svg>
