<svg xmlns="http://www.w3.org/2000/svg" width="96" height="101.455"><defs><linearGradient id="prefix__linear-gradient" x1=".454" x2=".5" y1=".088" y2="1" gradientUnits="objectBoundingBox"><stop offset="0" stop-color="#fd7979"/><stop offset="1" stop-color="#9d1b1b"/></linearGradient><linearGradient id="prefix__linear-gradient-2" x1=".734" x2=".106" y1=".297" y2="1" gradientUnits="objectBoundingBox"><stop offset="0" stop-color="#fdd17f"/><stop offset="1" stop-color="#e6ad42"/></linearGradient><linearGradient id="prefix__linear-gradient-3" x1=".381" x2=".451" y1=".388" y2="1" gradientUnits="objectBoundingBox"><stop offset="0" stop-color="#ff7979"/><stop offset="1" stop-color="#fab0b0"/></linearGradient><style>.prefix__cls-3{fill:#ffeccc}</style></defs><g id="prefix__Group_932" data-name="Group 932" transform="translate(-370 -1944.545)"><g id="prefix__Ellipse_101" fill="#fff" stroke="#e5e5e5" data-name="Ellipse 101" transform="translate(370 1950)"><circle cx="48" cy="48" r="48" stroke="none"/><circle cx="48" cy="48" r="47.5" fill="none"/></g><g id="prefix__Group_915" data-name="Group 915" transform="rotate(5.13 1325.317 840.905)"><path id="prefix__Path_2650" fill="#fdd17f" d="M16.336 0C22.939-.111 26.4 2.459 29.2 7.845s-1.559 8.758-.688 14.626a30.137 30.137 0 01-.524 11.029s-.147 5.67-9.639 5.263S2.916 40.879 1.17 35.449.082 26.542.082 26.542L2.789 8.3S9.733.118 16.336 0z" data-name="Path 2650" transform="rotate(-19 6308.657 -473.33)"/><path id="prefix__Path_2651" d="M11.4 28.243C4.936 27.535-.479 12.948.034 11.1S.9.5.9.5L15.8 0a34.309 34.309 0 013.827 10.964c.637 5.373 1.986 18.557-8.227 17.279z" class="prefix__cls-3" data-name="Path 2651" transform="rotate(-19 6317.304 -493.78)"/><path id="prefix__Path_2652" fill="url(#prefix__linear-gradient)" d="M1.265 1.778L6.1 13.787l.367 10.733-9.373 20.694a53.545 53.545 0 0017.59 3.9A52.6 52.6 0 0031.6 46.42l-7.166-19.694-1.66-6.157L31.08 0z" data-name="Path 2652" transform="rotate(-7 17193.54 -3103.545)"/><path id="prefix__Path_2653" fill="url(#prefix__linear-gradient-2)" d="M30.653 3.5c0 3.433-5.333 8.01-13 11.917S-6.007 22.869 0 19.123 8.674 10.039 15.674 2.87 30.653.067 30.653 3.5z" data-name="Path 2653" transform="rotate(-27 4487.443 1.338)"/><path id="prefix__Path_2654" d="M.8 5.892C2.59 4.533 11.158.376 13.311.027S10.491 2.745 9.41 4.5c-.709 1.151.363 1.847-.765 2.785-1.288 1.07-3.74.632-4.362 1.1A4.487 4.487 0 01.8 9.352S-1 7.251.8 5.892z" class="prefix__cls-3" data-name="Path 2654" transform="rotate(-58 2112.417 571.863)"/><path id="prefix__Path_2655" d="M-4175.412 8993.516c-1.569-1.187-8.932-1.779-8.637-.5s4.019 1.5 5.587 2.686a3.929 3.929 0 003.05.844s1.569-1.841 0-3.03z" class="prefix__cls-3" data-name="Path 2655" transform="translate(4692.293 -6905.842)"/><path id="prefix__Path_2656" fill="url(#prefix__linear-gradient-3)" d="M5.95 7.384C8.692 4.529 34.061.644 37.655 4.155s6.134 20.416 3 26.426-27.636-.289-27.636-.289l2.73-4.551s15.44 2.313 17.894-.073.294-8.406.294-8.406 1.875-3.346-4.726-3.576l-20.83-.727-.916 7.457L13.549.926l5.056 1.544S11.893 42.868 5.387 37.9 3.208 10.238 5.95 7.384z" data-name="Path 2656" transform="rotate(-7 17117.664 -3049.09)"/><path id="prefix__Path_2657" d="M3.656 28.725c5.682-.558 8.21-16.4 8.21-16.4s-1.791-.131-3.166-3.212S6.345 0 6.345 0H2.582l-2.6 14.46s-2.008 14.823 3.674 14.265z" class="prefix__cls-3" data-name="Path 2657" transform="rotate(-7 17028.95 -3202.1)"/></g></g></svg>