<svg xmlns="http://www.w3.org/2000/svg" width="96" height="103.858"><defs><linearGradient id="prefix__linear-gradient" x1=".454" x2=".5" y1=".088" y2="1" gradientUnits="objectBoundingBox"><stop offset="0" stop-color="#fd7979"/><stop offset="1" stop-color="#9d1b1b"/></linearGradient><linearGradient id="prefix__linear-gradient-2" x1=".734" x2=".106" y1=".297" y2="1" gradientUnits="objectBoundingBox"><stop offset="0" stop-color="#fdd17f"/><stop offset="1" stop-color="#e6ad42"/></linearGradient><linearGradient id="prefix__linear-gradient-3" x1=".381" x2=".451" y1=".388" y2="1" gradientUnits="objectBoundingBox"><stop offset="0" stop-color="#ff7979"/><stop offset="1" stop-color="#fab0b0"/></linearGradient><linearGradient id="prefix__linear-gradient-4" x1=".5" x2=".5" y1=".037" y2="1" gradientUnits="objectBoundingBox"><stop offset="0" stop-color="#4da1e8"/><stop offset="1" stop-color="#b9dffd"/></linearGradient><style>.prefix__cls-3{fill:#ffeccc}</style></defs><g id="prefix__Group_931" data-name="Group 931" transform="translate(-986 -1727.142)"><g id="prefix__Ellipse_97" fill="#fff" stroke="#e5e5e5" data-name="Ellipse 97" transform="translate(986 1735)"><circle cx="48" cy="48" r="48" stroke="none"/><circle cx="48" cy="48" r="47.5" fill="none"/></g><g id="prefix__Group_908" data-name="Group 908" transform="translate(488.387 -285.195)"><path id="prefix__Path_2598" fill="#fdd17f" d="M-4210.179 8903.816c6.278-.109 8.881 2.043 12.232 7.455s3.312 22.318 3.312 22.318-3.788 10.648-12.813 10.262-18.263-4.112-18.263-4.112-.708 2.006-1.279-8.115 3.931-19.918 3.931-19.918 6.603-7.781 12.88-7.89z" data-name="Path 2598" transform="translate(4779.302 -6882.242)"/><path id="prefix__Path_2601" d="M-4306.87 8933.429c-5.219-.673-8.474-14.69-8.06-16.448s3.4-10.658 3.4-10.658l12.039-.477 4.037 11.946s-3.159 16.852-11.416 15.637z" class="prefix__cls-3" data-name="Path 2601" transform="translate(4872.252 -6880.538)"/><path id="prefix__Path_2605" fill="url(#prefix__linear-gradient)" d="M-4221.857 8979.8l5.9 17.865-1.839 10.411-5.222 17.549s10.265-2.6 16.062-6a69.627 69.627 0 0011.229-8.657l-4.1-7.448-1.578-5.854 7.9-19.556z" data-name="Path 2605" transform="translate(4775.733 -6910.524)"/><path id="prefix__Path_2609" fill="url(#prefix__linear-gradient-2)" d="M-4206.329 8907.6c0 3.264-5.071 7.615-12.357 11.331s-14.693 4.091-16.787 3.525 6.1-2.766 11.88-11.795 17.264-6.328 17.264-3.061z" data-name="Path 2609" transform="translate(4780.917 -6882.445)"/><path id="prefix__Path_2610" fill="url(#prefix__linear-gradient-3)" d="M-4229.438 8970.646c2.915-5.529 30.816-8.319 33.785-5.067s3.619 22.162 1.186 26.783-24.152-.76-24.152-.76l3.629-2.576 15.087-.892.716-13.341-24.994 2.754 2.221 14.459 20.094-10.6v5.629s-21.007 14.8-24.579 13.739-5.909-24.601-2.993-30.128z" data-name="Path 2610" transform="translate(4780.022 -6904.883)"/><path id="prefix__Path_2611" d="M-4205.053 8975.826c5.753-.807 6.918-17.452 6.918-17.452s-1.507 1.734-2.67-1.194a51.03 51.03 0 01-1.981-8.665h-3.173l-3.057 13.874s-1.791 14.244 3.963 13.437z" class="prefix__cls-3" data-name="Path 2611" transform="translate(4771.826 -6899.26)"/><path id="prefix__Path_2612" d="M-4183.3 8993.622c1.7-1.293 9.709-1.936 9.388-.547s-4.369 1.626-6.073 2.918a4.266 4.266 0 01-3.314.918s-1.701-1.997-.001-3.289z" class="prefix__cls-3" data-name="Path 2612" transform="translate(4761.342 -6915.927)"/><path id="prefix__Path_2613" d="M-4210.008 9002.712l-6.209-.342.514 3.139h4.589l4.352-1.235z" class="prefix__cls-3" data-name="Path 2613" transform="translate(4773.587 -6919.763)"/><path id="prefix__Path_2597" fill="#70b5ee" d="M-1.482.834H13.76l14.555 1.591-1.537 11.634L24.226 40.6 6.365 35.733 1.8 33.2z" data-name="Path 2597" transform="translate(509.783 2067.725)"/><path id="prefix__Path_2608" d="M0 1.057L2.362 0l.283 3.779-2.1-.012" class="prefix__cls-3" data-name="Path 2608" transform="rotate(14 -8214.683 3219.685)"/><path id="prefix__Path_2686" fill="url(#prefix__linear-gradient-4)" d="M1073.935-4830.834c3.662-7.692 26.14-10.638 26.14-10.638s20.338 4.885 22.277 11.667-4.763 26.931-5.757 31.046-13.339.526-20.124-2.435c-6.037 3.281-16.87 10.716-18.321 6.441s-7.877-28.389-4.215-36.081zm35.015 24.481c2.13-2.726 2.912-18.935 2.912-18.935s-14.926-1.6-29.519 1.849l1.1 16.2 3.65-.935.82-2.44s1.494.552 3.69 1.286l17.111-4.381s-.509 5.22-.509 5.3a9.314 9.314 0 00-5.305 1.173c2.228.319 5.49 1.6 6.05.883z" data-name="Path 2686" transform="translate(-573.727 6896.14)"/><path id="prefix__Path_2600" d="M-4306.609 8931.834c-10.2-.025-8.454-9.021-7.965-10.78s2.09-14.552 2.09-14.552l13.987-1.127 4.611 3.475-2.328 12.542s-.195 10.469-10.395 10.442z" class="prefix__cls-3" data-name="Path 2600" transform="translate(4832.426 -6882.611)"/><path id="prefix__Path_2607" d="M-4327.378 9005.205s-4.887-3.038-7.755-2.577-3.717 3.523-3.717 4.425 5.084-.633 5.084-.633l5.847 1.494" class="prefix__cls-3" data-name="Path 2607" transform="translate(4841.351 -6919.841)"/><path id="prefix__Path_2614" fill="#707070" d="M510.8 2096.4s1.161 1.276 6.7 3.128 15.452 4.28 15.452 4.28v5.577a46.368 46.368 0 01-11.465-4.847 63 63 0 01-10.687-8.138z" data-name="Path 2614" transform="translate(.757 4.372)"/><path id="prefix__Path_2596" d="M-4313.383 8944.927l-2.381 8.528s-8.189 6.627 3.753 6.186 3.645-6.186 3.645-6.186l-2.414-9.042z" class="prefix__cls-3" data-name="Path 2596" transform="translate(4837.808 -6897.697)"/><path id="prefix__Path_2694" fill="gray" d="M4.364 9.223c-.55 1.706-2.757 13.555-2.757 13.555s-2.7-30.163 11.2-24.269 11.253 9.8 7.878 20.925l-2.175-8.973s-4.557.706-7.7.983-6.446-2.221-6.446-2.221z" data-name="Path 2694" transform="translate(516.729 2014.568)"/></g></g></svg>