<svg xmlns="http://www.w3.org/2000/svg" width="96" height="100.857"><defs><linearGradient id="prefix__linear-gradient" x1=".454" x2=".5" y1=".088" y2="1" gradientUnits="objectBoundingBox"><stop offset="0" stop-color="#fd7979"/><stop offset="1" stop-color="#9d1b1b"/></linearGradient><linearGradient id="prefix__linear-gradient-2" x1=".734" x2=".106" y1=".297" y2="1" gradientUnits="objectBoundingBox"><stop offset="0" stop-color="#fdd17f"/><stop offset="1" stop-color="#e6ad42"/></linearGradient><linearGradient id="prefix__linear-gradient-3" x1=".381" x2=".451" y1=".388" y2="1" gradientUnits="objectBoundingBox"><stop offset="0" stop-color="#ff7979"/><stop offset="1" stop-color="#fab0b0"/></linearGradient><filter id="prefix__Path_2623" width="30.641" height="40.1" x="32.903" y="56.827" filterUnits="userSpaceOnUse"><feOffset dy="1"/><feGaussianBlur result="blur" stdDeviation="1.5"/><feFlood flood-opacity=".184"/><feComposite in2="blur" operator="in"/><feComposite in="SourceGraphic"/></filter><style>.prefix__cls-3{fill:#ffeccc}</style></defs><g id="prefix__Group_934" data-name="Group 934" transform="translate(-986 -1945.143)"><g id="prefix__Ellipse_99" fill="#fff" stroke="#e5e5e5" data-name="Ellipse 99" transform="translate(986 1950)"><circle cx="48" cy="48" r="48" stroke="none"/><circle cx="48" cy="48" r="47.5" fill="none"/></g><g id="prefix__Group_912" data-name="Group 912" transform="translate(5601 -7831.262)"><path id="prefix__Path_2616" fill="#fdd17f" d="M-4209.9 8903.816c6.382-.11 9.028 2.077 12.435 7.58s3.367 22.688 3.367 22.688-3.851 10.826-13.026 10.433-18.566-4.181-18.566-4.181-.721 2.04-1.3-8.249 4-20.251 4-20.251 6.709-7.909 13.09-8.02z" data-name="Path 2616" transform="translate(-354.493 873.965)"/><path id="prefix__Path_2619" d="M-4307.41 8933.888c-4.872-.685-7.909-14.936-7.523-16.722s3.174-10.835 3.174-10.835l11.236-.485 3.767 12.145s-2.944 17.131-10.654 15.897z" class="prefix__cls-3" data-name="Path 2619" transform="translate(-260.476 876.73)"/><path id="prefix__Path_2618" fill="url(#prefix__linear-gradient)" d="M-4226 8983.6l7 14.387v10.291l-5.907 21.993s4.863 2.416 15.695 2.108a43.977 43.977 0 0017.925-4.087l-9.994-24.354-1.6-5.952 6.172-16.637z" data-name="Path 2618" transform="translate(-356.214 843.766)"/><path id="prefix__Path_2620" fill="url(#prefix__linear-gradient-2)" d="M-4205.844 8907.65c0 3.318-5.155 7.742-12.562 11.52s-14.937 4.158-17.066 3.584 5.738-4.627 14.128-12.992 15.5-5.427 15.5-2.112z" data-name="Path 2620" transform="translate(-352.992 872.084)"/><path id="prefix__Path_2624" fill="#333" d="M0 3.248L.811 0l.87 3.248V19.5H0z" data-name="Path 2624" transform="rotate(172 -2634.004 4770.886)"/><path id="prefix__Path_2622" d="M-4214.363 9002.006l-4.224 1.475-1.131-3.64 4.46-.542s4.041.932 4.584 1.907-3.689.8-3.689.8z" class="prefix__cls-3" data-name="Path 2622" transform="rotate(47 -5378.328 9003.968)"/><g filter="url(#prefix__Path_2623)" transform="translate(-4615 9776.41)"><path id="prefix__Path_2623-2" fill="#fff" d="M0 0h19.61l-1.048 14.984.543 13.989L.1 29.8l1.282-18.34z" data-name="Path 2623" transform="translate(37.4 61.7)"/></g><path id="prefix__Path_2617" fill="#ffeccc" d="M-4174.5 8995.692c-1.733 1.313-9.87 1.967-9.544.556s4.441-1.654 6.174-2.966a4.337 4.337 0 013.37-.935s1.73 2.032 0 3.345z" data-name="Path 2617" opacity=".89" transform="translate(-381.001 857.557)"/><path id="prefix__Path_2615" fill="url(#prefix__linear-gradient-3)" d="M-4232.606 8974.146c3.683-2.678 23.863-2.1 27.65 1.034s4.43 22.3 3.816 25.313-7.246 5.985-7.246 5.985l-2.281-3.45s3.681-3.848 4.219-5.937-1.937-14.747-1.937-14.747l-24.221 1.97s-6.015 6.918-6.827 11.8 1.885 6.077 1.885 6.077l-1.885 4.289s-5.486-4.337-5.039-10.366 8.182-19.29 11.866-21.968z" data-name="Path 2615" transform="translate(-346.404 847.015)"/><path id="prefix__Path_2621" d="M-4204.949 8974.8c5.752-.215 5.038-12.162 5.038-12.162s-.731-2.513-1.856-5.491-1.131-8.635-1.131-8.635h-3.068l-2.754 14.126s-1.98 12.38 3.771 12.162z" class="prefix__cls-3" data-name="Path 2621" transform="translate(-361.81 856.406)"/></g></g></svg>