<svg xmlns="http://www.w3.org/2000/svg" id="prefix__rkn15g" width="71.619" height="22.004"><defs><style>.prefix__cls-1{fill:#58af32}</style></defs><g id="prefix__Group_15" data-name="Group 15"><path id="prefix__Path_50" d="M-778.034 1044.892c.013.4.512.406.8.585a.731.731 0 00.156.046c.14.044.365.071.343.2-.026.153-.254.068-.392.089a1.036 1.036 0 01-.762-.065.253.253 0 00-.3.037.186.186 0 00-.039.244 3.02 3.02 0 001.556.661c.3-.166.524.005.778.036.068.008.136.043.134.106s-.081.083-.146.1a1.36 1.36 0 01-.7-.013 1.211 1.211 0 00-.653-.068l.679.209c-.265.179-.265.179-1.075.116a1.457 1.457 0 001.235.347 3.094 3.094 0 011.441.093 7.166 7.166 0 001.318.2c1.467.175 2.934.356 4.406.5.721.072 1.454.055 2.181.081 2.071.072 4.146.087 6.217.164 1.355.051 2.7.244 4.066.168 1.232-.068 2.463 0 3.694.008a7.848 7.848 0 001.818-.207 2.518 2.518 0 01.5-.043c.5-.011 1.009 0 1.51-.059a1.219 1.219 0 01.687.1 1.768 1.768 0 00.767.143h1.6a.849.849 0 00.7-.207.413.413 0 01.494-.054 1.464 1.464 0 001.012.1c.736-.161 1.5-.1 2.242-.239a1.8 1.8 0 01.705.055 1.027 1.027 0 00.283.056c1.258-.1 2.457.359 3.718.234a1.239 1.239 0 00.826-.234 2.124 2.124 0 011.315-.353 3.46 3.46 0 001.127-.1c-.446-.1-.85 0-1.28-.13.34-.177.7-.1 1.042-.23a2.32 2.32 0 00-.768-.39 2.285 2.285 0 011.117-.114c1.3-.013 2.6-.1 3.9-.031a13.938 13.938 0 001.962-.094c1.064-.094 2.146-.087 3.221-.087 1.32 0 2.621-.135 3.931-.226a60.105 60.105 0 003.155-.293 2.833 2.833 0 00.286-.048c.036-.008.063-.039.111-.071a1.786 1.786 0 00-1.2-.213 2.007 2.007 0 01.832-.086c.153.011.344-.022.36-.164s-.2-.212-.326-.188c-.617.111-1.264-.02-1.863.13a5.427 5.427 0 01-1.371.1c-.091 0-.231.012-.226-.092s.143-.079.235-.092c.774-.1 1.569-.014 2.358-.156-.157-.123-.392-.062-.559-.2.714-.1 1.447-.047 2.175-.095-.237.039-.475.075-.711.119-.086.016-.227.011-.187.125.025.073.136.076.216.063a24.593 24.593 0 002.512-.294c.233-.066.5-.064.737-.12.3-.069.64-.1.68-.438.014-.115.208-.129.341-.159.757-.166 1.338-.613 2.1-.736-.005-.187-.206-.085-.255-.18.027-.018.053-.049.087-.055a7.244 7.244 0 00.988-.354c.1-.035.4-.1.04-.229-.2-.074-.032-.18.054-.254.105-.09.382-.106.31-.261s-.335-.108-.522-.129c-.067-.007-.134-.011-.264-.022a2.236 2.236 0 01.676-.4c.27-.1.172-.175-.008-.26a.476.476 0 00-.322-.034 13.253 13.253 0 01-2.287.163c-.119.007-.264.031-.336-.082s.019-.162.1-.223c.053-.037.1-.082.082-.141-.086-.274.2-.29.373-.245a.966.966 0 001.042-.276c.055-.057.178-.065.214-.153-.137-.071-.264.024-.4.012-.066-.006-.147.018-.181-.047-.106-.2-.1-.207-.351-.209-.428 0-.856 0-1.291-.039.768-.082 1.5-.259 2.293-.4-.3-.216-.617-.011-.91-.109.359-.231.851-.176 1.236-.415a1.386 1.386 0 00-.9.052 1.615 1.615 0 01-.356.1c-.229.051-.47.081-.538-.158s.23-.192.386-.24a1.68 1.68 0 00.528-.146 1.887 1.887 0 00-.88-.244c-.1-.016-.263.008-.255-.115.006-.09.148-.087.242-.09.25-.009.373-.108.42-.295.075-.3.355-.443.695-.556a1.849 1.849 0 00.924-.489 2.548 2.548 0 00-1.06.352 2.008 2.008 0 01-1.78.005 13.622 13.622 0 011.716-.8c-1.3.133-2.544 0-3.782.141.416-.253.989-.088 1.395-.367-.521-.058-1.033.1-1.633.029a1.7 1.7 0 01.851-.223 9.8 9.8 0 002.479-.347l-.008-.082c-.233.008-.465.014-.7.024-.251.012-.5.028-.752.043-.07 0-.14.017-.209.015-.149-.005-.353.027-.4-.115s.217-.1.292-.195c-.047-.139-.267-.016-.337-.132.18-.172.494-.114.765-.267h-.834a11.363 11.363 0 011.68-.306c.109-.02.222-.031.326-.06s.255-.08.223-.2-.176-.125-.306-.109-.246.044-.37.06c-.092.012-.218.054-.264-.037-.146-.288-.438-.254-.733-.212-.485.07-.994 0-1.454.064-.564.075-1.129.127-1.7.176a15.691 15.691 0 01-3.756.09c-.1-.015-.193-.025-.289-.043a.535.535 0 01-.107-.047.625.625 0 01.532-.147c1.614.047 3.215-.168 4.827-.144.431.006.7-.274 1.088-.373l-2.755.252-.037-.1a3.366 3.366 0 011.412-.444 5.963 5.963 0 001.574-.283 5.605 5.605 0 001.09-.233c.107-.046.276-.1.24-.2-.042-.119-.228-.11-.363-.093-.483.063-.964.136-1.447.2a1.142 1.142 0 01-.522 0 3.522 3.522 0 00.838-.2c-.111-.132-.284-.053-.432-.134a3.293 3.293 0 01.738-.1c.3-.068.674-.033.825-.353.073-.156.4-.077.538-.227-.183-.129-.373.019-.646-.034a6.165 6.165 0 01.926-.5c.306-.082.612-.2.656-.551-.258.047-.508.092-.757.14-.116.022-.219.044-.262-.083-.05-.148.1-.142.194-.142.787 0 1.27-.5 1.945-.685a.131.131 0 00.1-.161c-.018-.11-.115-.045-.187-.052-.52-.057-.885.272-1.374.317a6.9 6.9 0 01-1.2.218c-.637-.049-1.273.087-1.915-.018a6.389 6.389 0 011.62-.312c.082-.012.168-.006.251-.014.138-.013.376-.1.331-.127-.185-.116.073-.391-.3-.425a6.384 6.384 0 00-1.4-.166c-.011 0-.165.053-.078-.053.016-.019.073-.019.121-.03-.11-.083-.285 0-.4-.131a6.03 6.03 0 001.081-.173l-.573-.237c.46-.056.813-.343 1.3-.316a1.653 1.653 0 00-1.541-.559 9.131 9.131 0 01-1.343-.012c-.228-.016-.372-.029-.38-.235-.005-.13-.1-.233-.285-.234a.216.216 0 00-.238.226c-.026.257-.182.332-.5.274a10.7 10.7 0 00-2.128.17 18.031 18.031 0 01-2.745 0 7.642 7.642 0 00-1.225-.3.229.229 0 01-.222-.244c-.013-.224-.2-.268-.432-.254a22.55 22.55 0 01-2.474.1 1.624 1.624 0 00.281.425c.2.231.091.412-.258.418-.7.011-1.4.005-2.1 0-.254 0-.452-.053-.206-.286.041-.039.09-.1.08-.142-.081-.319.219-.285.441-.265a3.2 3.2 0 001.007-.124c-.438-.169-.871-.022-1.265-.126.095-.145.322-.065.407-.226-.25-.02-.489-.046-.729-.057-.132-.006-.3-.026-.285.152 0 .025-.029.06-.058.078a4.834 4.834 0 01-1.474-.052.822.822 0 00-.873-.137 2.134 2.134 0 01-.932.047 7.719 7.719 0 00-1.332-.039c-1.621.013-3.238-.085-4.867.03a8.207 8.207 0 01-2.845-.161 2 2 0 00-.983.088 1.552 1.552 0 01-.5.045c-.033-.1.281-.114.094-.246a.614.614 0 00-.529-.129c-.163.037-.19.1-.12.218.1.159-.062.168-.191.153-.825-.1-1.661-.139-2.474-.3-.107-.021-.26-.069-.32-.033a.877.877 0 01-.956-.01.56.56 0 00-.4-.01 2.78 2.78 0 01-1.588.154c-1.053-.1-2.1.032-3.142.011-2.353-.048-4.706-.075-7.058-.133-2.239-.055-4.471 0-6.7.12-2.152.117-4.29.339-6.438.483a1.59 1.59 0 00-.65.278 2.149 2.149 0 01-1.956.3c-.26-.11-.458.163-.742.2.445.163.463.413.114.637a4.6 4.6 0 00-.735.518 1.229 1.229 0 01-.818.2 6.15 6.15 0 01-1.744.014.524.524 0 00-.639.357c-.064.14.153.305.311.341a3.014 3.014 0 00.791.024 13.555 13.555 0 011.507-.076.928.928 0 01.453.063c-.267.158-.632.072-1 .285.466-.064.746-.007.824.334-.326.049-.663.105-1 .15a.552.552 0 01-.508-.174c-.177-.2-.3-.138-.408.047-.075.123-.132.263-.341.308-.1.021-.1.094-.07.163a.719.719 0 01-.045.533c-.095.248.046.4.335.417.308.014.4.194.409.327.017.177-.265.17-.428.176a2.4 2.4 0 01-.866.015c-.053-.017-.106-.041-.149 0s-.034.1.023.144c.123.089.232.17.246.321.009.1.163.1.279.081s.232-.088.384 0c-.132.177-.373.082-.544.133-.135.04-.351.024-.328.189.019.138.205.124.341.126a4.767 4.767 0 00.5-.014c.095-.008.261-.039.266-.072.054-.36.47-.256.724-.36a6.22 6.22 0 01.9-.342c.174-.042.377-.119.5.021s-.115.208-.2.308c-.327.38-.894.32-1.355.436a4.615 4.615 0 01-2.054.11 2.028 2.028 0 00-.315 0 1.811 1.811 0 001.358.5c.671-.026 1.34-.085 2.015-.052.184.009.333.022.373.191.021.09.108.147.206.2.144.072.414.1.154.31-.094.077.071.127.161.128.2 0 .39-.017.585-.03a2.009 2.009 0 01.662-.036 18.838 18.838 0 01-2.935.321c.105-.206.3-.124.446-.158.1-.023.21-.061.2-.144-.014-.1-.147-.083-.24-.078-.28.016-.528.145-.815.146-.08 0-.137.051-.041.1.145.077.05.121-.027.169-.107.067-.244.118-.15.26a.459.459 0 00.385.214 14.7 14.7 0 001.873-.042c-.51.09-.878.4-1.385.5a.477.477 0 01-.462-.169.358.358 0 00-.429-.118c-.17.082 0 .192.022.289.054.206.232.477-.326.348a.248.248 0 00-.27.123.688.688 0 00.073.75.293.293 0 00.471 0c.127-.174.321-.151.5-.134.209.02.234.158.243.3a1.467 1.467 0 00.055.288c.028.1.112.213-.032.3a.545.545 0 01-.508.062c-.153-.064-.424-.139-.466-.086-.214.265-.586.236-.875.351-.207.083-.079.231.106.284a.974.974 0 00.655-.035 7.5 7.5 0 011.073-.275.87.87 0 01.328-.031c.169.022.422-.007.449.168s-.219.119-.351.157c-.108.031-.226.056-.2.172s-.016.18-.168.159a.42.42 0 01-.321-.235c-.035-.073.185-.006.22-.126-.257-.066-.506-.141-.62.15-.067.171-.357.121-.437.279.081.115.3-.078.336.079.027.136-.159.159-.276.208-.1.041-.2.071-.306.1s-.264-.1-.271.041.2.12.33.124a1.318 1.318 0 00.554-.137c.222-.095.48-.172.645.01a.362.362 0 01-.066.623c.3-.03.607-.044.9-.094.207-.034.424-.031.619-.073a1.223 1.223 0 011.14.354c.123.1.079.137-.042.19a1.261 1.261 0 01-.649.1 1.92 1.92 0 00-1.393.529.728.728 0 00.628-.153c.271-.293.642-.21 1.019-.22a.529.529 0 01-.047.085c-.089.1-.367 0-.355.161s.246.186.395.264.484.03.449.223c-.043.232-.386.2-.6.2a6.232 6.232 0 00-1.849.28 2.861 2.861 0 001.484.121c0-.164-.176-.168-.265-.3h.664c.292 0 .438.091.393.339s-.219.3-.5.275c-.435-.04-.871-.073-1.317-.11.011.236.3.14.37.266-.126.161-.259.041-.393.012-.239-.052-.505-.17-.52.192-.007.176-.268.181-.391.123a.406.406 0 00-.613.2c-.088.2.128.28.39.319.443.066.107.289.054.389-.2.371-.221.368.315.45a.794.794 0 01.4.158.742.742 0 00.523.17c-.062-.252.14-.272.377-.248a2.953 2.953 0 00.864.085 7.186 7.186 0 011.66-.044c.26 0 .622.049.635-.228.012-.24-.34-.19-.563-.217a3 3 0 01-1.537-.514.761.761 0 00-.59-.119 1.49 1.49 0 01-.776-.118 2.937 2.937 0 011.94.263 3.082 3.082 0 001.59.264c.644-.071.685.408.877.73.03.05.076.088.046.144a.357.357 0 01-.064.084.683.683 0 01-.658.255c-.328-.05-.657-.089-.984-.152a11.151 11.151 0 00-2.8-.195zm53.1-14.7c-.453.2-.918.072-1.276.214a2.532 2.532 0 001.594.814 14.5 14.5 0 01-2.561.015c.191-.1.393-.009.518-.173l-.412-.023c-.487-.025-.974-.047-1.461-.073-.129-.007-.273-.029-.292-.145-.021-.132.139-.143.257-.166a1.5 1.5 0 01.862-.028c.442.207.7-.115 1.061-.118-.569-.277-1.2.049-1.811-.147a1.24 1.24 0 01.843-.193.622.622 0 00.593-.226c.141-.2.279-.142.4 0a.666.666 0 00.542.191 5.249 5.249 0 011.144.059zm-50.843 7.3c-.182.153-.2.351-.494.348a3.227 3.227 0 00-1.591.306.378.378 0 01-.424-.02.484.484 0 01.069-.72c-.127-.1-.29-.046-.435-.06-.111-.011-.243-.008-.282-.1s.094-.147.185-.186a2.529 2.529 0 011.536-.162 2.172 2.172 0 001.139-.018c.259-.08.524-.149.783-.23a.514.514 0 01.5.025 1.827 1.827 0 01-1.419.468 4.123 4.123 0 00-1.078.039c-.126.043-.3.07-.254.211.039.118.2.1.324.09.458-.051.918.01 1.442.01zm33.493-9.055h-2.906c-.109 0-.246.015-.3-.08-.063-.116.078-.168.166-.234a.8.8 0 01.561-.17 4.049 4.049 0 00.667-.043c.434-.046.866-.331 1.3 0a.288.288 0 00.163 0 4.9 4.9 0 012.043-.169c.309.07.359.007.512.27a2.956 2.956 0 00-1.372-.044 2.133 2.133 0 00-1.051.342c-.025.022-.023.025.217.13zm23.967 2.059c-.248.141-.559.032-.792.212a8.369 8.369 0 011.335.022c.076.021.186.006.208.082s-.068.146-.154.174a2.6 2.6 0 01-1.148.243 11.9 11.9 0 00-2.115-.218c-.01 0-.023-.032-.05-.071a5.682 5.682 0 001.531-.17h-.274c-.558-.01-1.116.062-1.675.007-.113-.011-.236-.021-.24-.138 0-.082.076-.1.171-.1.845-.044 1.69-.093 2.535-.137a1.264 1.264 0 01.669.098zm-14.694.705c.094-.193.4-.131.431-.331.038-.268-.222-.341-.45-.372-.322-.044-.11-.311-.321-.387-.014-.005.057-.073.115-.07.156.007.25-.1.376-.123a1.152 1.152 0 01.951.077 1.135 1.135 0 00.72.2 6.326 6.326 0 011.219.068 5.363 5.363 0 00-1.037.189c-.319.131-.531.143-.757-.129.007.174-.124.252-.257.32.1.089.205.057.295.08.223.055.109.2.126.3s-.008.206-.184.2a7.718 7.718 0 01-1.226-.023zm11.854-1.618c.054-.116.153-.112.228-.115 1.137-.043 2.257-.251 3.4-.214.091 0 .181.01.184.093a.283.283 0 01-.141.29.164.164 0 01-.191 0c-.11-.1.161-.137.079-.257a2.589 2.589 0 01-.78 0 .369.369 0 00-.4.124c-.1.164-.229.138-.41.09-.285-.075-.555-.086-.659.213-.046.132-.214.149-.346.109-.325-.099-.644-.216-.964-.331zm-55.038 16.605a7.6 7.6 0 012.511.092.431.431 0 01.21.1c.132.119.352.267.2.409s-.407.059-.559-.063a1.658 1.658 0 00-1.039-.268 4.062 4.062 0 01-1.322-.268zm60.6-3.99a21.877 21.877 0 01-5.208.175c1.811-.151 3.519-.063 5.21-.173zm-16.6-13.821c-.3-.13-.669-.288-1.033-.459a.085.085 0 01.011-.164 1.657 1.657 0 011-.135c.25.054.227.246.254.4.007.042.008.094.04.123.266.236.054.239-.267.237z" class="prefix__cls-1" data-name="Path 50" transform="translate(781.353 -1026.74)"/><path id="prefix__Path_51" d="M-745.951 1310.243a10.306 10.306 0 002.2-.384 2.415 2.415 0 00.575-.374.126.126 0 00.026-.207c-.008-.009-.014-.022-.024-.025-.221-.058.072-.375-.2-.4a1.105 1.105 0 00-.826.18c-.348.333-.791.271-1.175.424-.158.063-.34.066-.5.12-.131.043-.385-.047-.326.254 0 .01-.074.038-.116.053-.087.032-.247-.032-.24.12.005.125.143.172.257.2s.249.027.349.039z" class="prefix__cls-1" data-name="Path 51" transform="translate(812.309 -1290.75)"/><path id="prefix__Path_52" d="M-746.068 1334.715a6.8 6.8 0 004.617-1.06 5.416 5.416 0 01-1.56.172.41.41 0 00-.2.052 5.716 5.716 0 01-2.164.623 1.8 1.8 0 00-.693.213z" class="prefix__cls-1" data-name="Path 52" transform="translate(810.619 -1313.84)"/><path id="prefix__Path_53" d="M-568.118 1340.683c-.235-.124-.455-.336-.72-.1-.082.074-.138-.035-.185-.1a1.032 1.032 0 00-1.485.06c-.1.179.018.3.2.308a6.636 6.636 0 00.866.006c.229-.015.455-.083.683-.115.21-.024.426-.042.641-.059z" class="prefix__cls-1" data-name="Path 53" transform="translate(621.871 -1319.933)"/><path id="prefix__Path_54" d="M-654.589 1337.848a2.316 2.316 0 01-.552-.129.5.5 0 00-.558.036.42.42 0 01-.477.077.26.26 0 00-.317.037c-.038.04-.091.09-.09.134 0 .063.076.08.134.082a4.351 4.351 0 001.86-.237z" class="prefix__cls-1" data-name="Path 54" transform="translate(717.543 -1317.56)"/><path id="prefix__Path_55" d="M54.712 1105.385a.9.9 0 00.488.634.282.282 0 00.406-.15c.1-.185-.111-.205-.2-.238-.211-.076-.378-.165-.4-.417-.006-.074-.066-.141-.141-.07-.059.056-.214.016-.153.241z" class="prefix__cls-1" data-name="Path 55" transform="translate(-54.568 -1100.033)"/></g></svg>