<svg xmlns="http://www.w3.org/2000/svg" width="7.328" height="11.36"><path id="prefix__Path_2568" fill="#fff" d="M3.9-2.576a.346.346 0 01-.256-.1.346.346 0 01-.1-.256v-.656a2.831 2.831 0 01.44-1.472 9.482 9.482 0 011.16-1.392A9.7 9.7 0 006-7.428a1.7 1.7 0 00.328-.832.953.953 0 00.016-.208 1.351 1.351 0 00-.624-1.168 2.494 2.494 0 00-1.456-.432 2.345 2.345 0 00-1.5.472A2.3 2.3 0 002-8.112a.383.383 0 01-.416.352H.88a.353.353 0 01-.248-.1.332.332 0 01-.1-.256 3.2 3.2 0 01.5-1.624 3.339 3.339 0 011.328-1.18 4.227 4.227 0 011.96-.44 4.371 4.371 0 011.968.4 2.761 2.761 0 011.184 1.048 2.642 2.642 0 01.384 1.368 2.613 2.613 0 01-.368 1.408 9.238 9.238 0 01-1.1 1.376 9.43 9.43 0 00-.912 1.112 2.129 2.129 0 00-.356 1.016q-.032.448-.032.672-.08.384-.4.384zM3.76 0a.358.358 0 01-.26-.1.358.358 0 01-.1-.264V-1.3a.385.385 0 01.1-.272.345.345 0 01.26-.108h.992a.37.37 0 01.272.112.37.37 0 01.112.272v.928a.345.345 0 01-.112.268.385.385 0 01-.272.1z" data-name="Path 2568" transform="translate(-.528 11.36)"/></svg>