<svg xmlns="http://www.w3.org/2000/svg" width="56" height="56"><defs><style>.prefix__cls-2{fill:#58af32}.prefix__cls-3{fill:gray}</style></defs><g id="prefix__Group_232" data-name="Group 232" transform="translate(-358 -351)"><g id="prefix__Rectangle_165" data-name="Rectangle 165" transform="translate(358 351)" fill="#fff" stroke="#c4c4c4"><rect width="56" height="56" rx="28" stroke="none"/><rect width="55" height="55" x=".5" y=".5" rx="27.5" fill="none"/></g><path id="prefix__Subtraction_39" d="M21 24H3a3 3 0 01-3-3v-7.714h2V21a1 1 0 001 1h18a1 1 0 001-1V-5a1 1 0 00-1-1H8v-2h13a3 3 0 013 3v26a3 3 0 01-3 3zM0 3.189v-8.262z" class="prefix__cls-2" data-name="Subtraction 39" transform="rotate(180 199 193.5)"/><rect id="prefix__Rectangle_534" width="12" height="2" class="prefix__cls-3" data-name="Rectangle 534" rx="1" transform="translate(380 371)"/><rect id="prefix__Rectangle_535" width="12" height="2" class="prefix__cls-3" data-name="Rectangle 535" rx="1" transform="translate(380 377)"/><rect id="prefix__Rectangle_536" width="8" height="2" class="prefix__cls-3" data-name="Rectangle 536" rx="1" transform="translate(380 383)"/><path id="prefix__Path_193" d="M3.808-3.024a.326.326 0 01-.24-.1.307.307 0 01-.1-.224q0-.336.016-.512a2.808 2.808 0 01.48-1.328 9.689 9.689 0 011.1-1.28 9.011 9.011 0 00.808-.9 1.412 1.412 0 00.3-.736 1.1 1.1 0 00-.424-1.04 1.844 1.844 0 00-1.172-.376A1.74 1.74 0 002.7-7.968a.455.455 0 01-.46.368H.848a.345.345 0 01-.264-.112A.406.406 0 01.48-8a3.166 3.166 0 01.536-1.648 3.615 3.615 0 011.448-1.24 4.917 4.917 0 012.224-.472 4.917 4.917 0 012.184.424 2.893 2.893 0 011.248 1.08A2.616 2.616 0 018.512-8.5a2.626 2.626 0 01-.36 1.4 9.1 9.1 0 01-1.064 1.36 9.423 9.423 0 00-.792.936 2.243 2.243 0 00-.376.84q-.064.4-.08.544a.877.877 0 01-.176.3.368.368 0 01-.272.1zM3.76 0a.37.37 0 01-.272-.112.37.37 0 01-.112-.272v-1.424a.37.37 0 01.112-.272.37.37 0 01.272-.112h1.584a.4.4 0 01.28.112.358.358 0 01.12.272v1.424a.37.37 0 01-.112.272.39.39 0 01-.288.112z" class="prefix__cls-2" data-name="Path 193" transform="translate(391 391)"/></g></svg>