<svg xmlns="http://www.w3.org/2000/svg" width="56" height="56"><defs><style>.prefix__cls-3{fill:gray}</style></defs><g id="prefix__Group_141" data-name="Group 141" transform="translate(-233 -265)"><g id="prefix__Rectangle_165" data-name="Rectangle 165" transform="translate(233 265)" fill="#fff" stroke="#c4c4c4"><rect width="56" height="56" rx="28" stroke="none"/><rect width="55" height="55" x=".5" y=".5" rx="27.5" fill="none"/></g><path id="prefix__Subtraction_40" d="M1579 16h-20a2 2 0 01-2-2V0h24v14a2 2 0 01-2 2zm-20-14v10a2 2 0 002 2h16a2 2 0 002-2V2z" data-name="Subtraction 40" transform="translate(-1308 290)" fill="#58af32"/><path id="prefix__Subtraction_41" d="M1585 4h-28V1a2 2 0 012-2h24a2 2 0 012 2v3zm-25.5-3a.5.5 0 100 1h23a.5.5 0 100-1z" class="prefix__cls-3" data-name="Subtraction 41" transform="translate(-1310 285)"/><path id="prefix__Rectangle_543" d="M2 0a2 2 0 012 2v1H0V2a2 2 0 012-2z" class="prefix__cls-3" data-name="Rectangle 543" transform="translate(259 281)"/><path id="prefix__Path_192" d="M267.6 310.4l-8.284-10.023 3.557-6.216-5.082-5.928.981-11.9" data-name="Path 192" stroke="#fff" stroke-width="4" fill="none"/></g></svg>