<svg xmlns="http://www.w3.org/2000/svg" width="56" height="56"><defs><style>.prefix__cls-2{fill:none}</style></defs><g id="prefix__Group_226" data-name="Group 226" transform="translate(-233 -265)"><g id="prefix__Rectangle_165" data-name="Rectangle 165" transform="translate(233 265)" fill="#fff" stroke="#c4c4c4"><rect width="56" height="56" rx="28" stroke="none"/><rect width="55" height="55" x=".5" y=".5" class="prefix__cls-2" rx="27.5"/></g><g id="prefix__round-chevron_left-24px" transform="rotate(180 136.5 152.5)"><g id="prefix__Bounding_Boxes"><path id="prefix__Path_134" d="M24 0H0v24h24z" class="prefix__cls-2" data-name="Path 134"/></g><g id="prefix__Rounded" transform="translate(8.997 6.418)"><path id="prefix__Path_135" d="M8.71 6.71a1 1 0 011.41 0l4.59 4.59a1 1 0 010 1.41l-4.59 4.59a1 1 0 01-1.41 0 1 1 0 010-1.41L12.59 12 8.71 8.12a1 1 0 010-1.41z" data-name="Path 135" transform="translate(-8.417 -6.418)" fill="#d0d0d0"/></g></g></g></svg>