<svg xmlns="http://www.w3.org/2000/svg" width="24.001" height="20"><path id="telegram-1" d="M18.384 22.779a1.189 1.189 0 001.107.145 1.16 1.16 0 00.724-.84C21.084 18 23.192 7.663 23.983 3.948a.781.781 0 00-.26-.758.8.8 0 00-.8-.14C18.733 4.6 5.82 9.447.542 11.4a.822.822 0 00.051 1.563c2.367.708 5.474 1.693 5.474 1.693s1.452 4.385 2.209 6.615a.876.876 0 00.6.576.866.866 0 00.811-.207l3.1-2.923s3.572 2.619 5.6 4.062zM7.374 14.1l1.679 5.54.373-3.507 10.185-9.186a.277.277 0 00.033-.377.284.284 0 00-.376-.064L7.374 14.1z" transform="translate(0 -3)" fill="#fff" fill-rule="evenodd"/></svg>