<svg xmlns="http://www.w3.org/2000/svg" width="32" height="32"><g id="round-chevron_left-24px" transform="rotate(90 16 16)"><g id="Bounding_Boxes"><path id="Path_101" data-name="Path 101" d="M0 0h32v32H0z" fill="none"/></g><g id="Rounded" transform="translate(6.223 8.557)"><path id="Path_102" data-name="Path 102" d="M16.808 6.807a1.328 1.328 0 00-1.88 0l-6.12 6.12a1.328 1.328 0 000 1.88l6.12 6.12a1.328 1.328 0 001.88 0 1.328 1.328 0 000-1.88l-5.173-5.187 5.173-5.173a1.34 1.34 0 000-1.88z" transform="translate(-8.418 -6.418)" fill="#fff"/></g><g id="Rounded-2" data-name="Rounded" transform="translate(15.223 8.557)"><path id="Path_102-2" data-name="Path 102" d="M16.808 6.807a1.328 1.328 0 00-1.88 0l-6.12 6.12a1.328 1.328 0 000 1.88l6.12 6.12a1.328 1.328 0 001.88 0 1.328 1.328 0 000-1.88l-5.173-5.187 5.173-5.173a1.34 1.34 0 000-1.88z" transform="translate(-8.418 -6.418)" fill="#fff"/></g></g></svg>