<svg xmlns="http://www.w3.org/2000/svg" width="56" height="56"><defs><style>.prefix__cls-3{fill:#fff}.prefix__cls-2{fill:#58af32}.prefix__cls-3{stroke-linecap:round}.prefix__cls-5,.prefix__cls-6{stroke:none}.prefix__cls-6{fill:gray}</style></defs><g id="prefix__Group_891" data-name="Group 891" transform="translate(-614 -338)"><g id="prefix__Union_16" fill="#fff" data-name="Union 16"><path d="M-11825.999-7654h-.002v-4h-3.999l7.999-.001-2.998.001h-1v4z" class="prefix__cls-5" transform="translate(12472 8007)"/><path d="M-11824.999-7653h-2.002v-4h-2.999a1 1 0 010-2.001h7.999a1.001 1.001 0 010 2.001h-2.998v4z" class="prefix__cls-6" transform="translate(12472 8007)"/></g><path id="prefix__Subtraction_47" d="M-11811-7630a15.892 15.892 0 01-11.313-4.685 16 16 0 01-3.083-4.317h2.264a14.11 14.11 0 002.233 2.9 13.906 13.906 0 009.9 4.1 13.9 13.9 0 009.9-4.1 13.92 13.92 0 004.1-9.9 13.906 13.906 0 00-4.1-9.9 13.9 13.9 0 00-9.9-4.1 13.906 13.906 0 00-9.9 4.1 14.057 14.057 0 00-2.231 2.9h-2.266a16.006 16.006 0 013.083-4.314A15.892 15.892 0 01-11811-7662a15.9 15.9 0 0111.315 4.685A15.9 15.9 0 01-11795-7646a15.908 15.908 0 01-4.686 11.316A15.89 15.89 0 01-11811-7630z" class="prefix__cls-2" data-name="Subtraction 47" transform="translate(12457 8014)"/><g id="prefix__Union_17" class="prefix__cls-3" data-name="Union 17"><path d="M-11826-7653h-.001l.001-9v9z" class="prefix__cls-5" transform="rotate(-30 9376.896 -26915.432)"/><path d="M-11826-7663a1 1 0 011 1v9a1 1 0 11-2 0v-9a1 1 0 011-1z" class="prefix__cls-6" transform="rotate(-30 9376.896 -26915.432)"/></g><g id="prefix__Union_18" class="prefix__cls-3" data-name="Union 18"><path d="M-11826-7652h-.001l.001-10v10z" class="prefix__cls-5" transform="rotate(60 -12535.391 7158.84)"/><path d="M-11826-7663a1 1 0 011 1v10a1 1 0 11-2 0v-10a1 1 0 011-1z" class="prefix__cls-6" transform="rotate(60 -12535.391 7158.84)"/></g><g id="prefix__Union_19" class="prefix__cls-3" data-name="Union 19"><path d="M-11824-7658c-1.103 0-2-.897-2-2s.897-2 2-2 2 .897 2 2-.897 2-2 2z" class="prefix__cls-5" transform="rotate(90 -9603 2589)"/><path fill="#58af32" d="M-11824-7661a1.001 1.001 0 000 2 1.001 1.001 0 000-2m0-2a3 3 0 110 6 3 3 0 010-6z" transform="rotate(90 -9603 2589)"/></g><rect id="prefix__Rectangle_717" width="11" height="2" class="prefix__cls-2" data-name="Rectangle 717" rx="1" transform="translate(627 363)"/><rect id="prefix__Rectangle_718" width="11" height="2" class="prefix__cls-2" data-name="Rectangle 718" rx="1" transform="translate(625 367)"/><rect id="prefix__Rectangle_719" width="11" height="2" class="prefix__cls-2" data-name="Rectangle 719" rx="1" transform="translate(623 371)"/><path id="prefix__Rectangle_734" fill="none" d="M0 0h56v56H0z" data-name="Rectangle 734" transform="translate(614 338)"/></g></svg>