<svg xmlns="http://www.w3.org/2000/svg" width="56" height="56"><defs><style>.prefix__cls-1{fill:#fff;stroke:#58af32;stroke-linecap:round;stroke-linejoin:round;stroke-width:2px}.prefix__cls-3{fill:none}.prefix__cls-4{stroke:none}</style></defs><g id="prefix__Group_890" data-name="Group 890" transform="translate(-614 -466)"><g id="prefix__Rectangle_705" class="prefix__cls-1" data-name="Rectangle 705" transform="translate(623.262 479)"><rect width="39.142" height="27.726" class="prefix__cls-4" rx="2"/><rect width="37.142" height="25.726" x="1" y="1" class="prefix__cls-3" rx="1"/></g><g id="prefix__Rectangle_706" class="prefix__cls-1" data-name="Rectangle 706" transform="translate(620 501.834)"><rect width="45.666" height="8.155" class="prefix__cls-4" rx="2"/><rect width="43.666" height="6.155" x="1" y="1" class="prefix__cls-3" rx="1"/></g><g id="prefix__YRSlmz_tif" transform="translate(633.102 190.243)"><g id="prefix__Group_881" data-name="Group 881" transform="translate(2 293.268)"><g id="prefix__Group_880" data-name="Group 880"><path id="prefix__Path_2558" fill="gray" stroke="gray" stroke-width=".7" d="M0 6.177a1.262 1.262 0 011.306-.808c.448.007.9 0 1.345 0a1.291 1.291 0 011.079.445.253.253 0 00.322.09 3.873 3.873 0 001.876-1.306 2.245 2.245 0 00.461-1.378V.765c0-.493.094-.6.582-.7a2.187 2.187 0 012.811 2.252c.011.74.012 1.48 0 2.22 0 .265.085.352.349.348.818-.013 1.638.026 2.455-.012a2.306 2.306 0 012.563 1.707v.875c-.017.065-.04.128-.051.194-.269 1.67-.542 3.339-.8 5.011a2.183 2.183 0 01-1.869 1.971 5.879 5.879 0 01-1.07.085q-2.809.012-5.618 0a4.27 4.27 0 01-.941-.084 2.145 2.145 0 01-1.653-2.209V6.704c0-.438-.072-.506-.51-.508H1.258c-.374 0-.453.077-.456.457-.006.65 0 1.3 0 1.951v4.1c0 .447.067.51.5.514h.74c.246 0 .445.121.457.392s-.176.4-.426.423-.493 0-.74.013a1.267 1.267 0 01-1.333-.8zm8.574 7.718c1.066 0 2.131.006 3.2 0 .941-.007 1.537-.4 1.667-1.153.314-1.833.613-3.669.88-5.51a1.255 1.255 0 00-1.359-1.514c-.987-.006-1.974 0-2.961 0s-.99 0-1-1.01a22.445 22.445 0 00-.06-2.688 1.267 1.267 0 00-1.3-1.2c-.295-.014-.43.073-.421.4a41.05 41.05 0 010 1.985 3.161 3.161 0 01-.685 1.964 4.573 4.573 0 01-2.191 1.5.453.453 0 00-.365.524c.014 1.739.005 3.477.007 5.216a1.342 1.342 0 001.493 1.5c1.031-.012 2.063-.014 3.095-.015z" data-name="Path 2558"/></g></g></g><path id="prefix__Rectangle_735" d="M0 0h56v56H0z" class="prefix__cls-3" data-name="Rectangle 735" transform="translate(614 466)"/></g></svg>