<svg xmlns="http://www.w3.org/2000/svg" width="56" height="56"><defs><style>.prefix__cls-1{fill:#fff;stroke:#58af32;stroke-linecap:round;stroke-linejoin:round;stroke-width:2px}.prefix__cls-2{fill:gray}.prefix__cls-3{fill:none}.prefix__cls-4{stroke:none}</style></defs><g id="prefix__Group_892" data-name="Group 892" transform="translate(-614 -256)"><g id="prefix__Rectangle_705" class="prefix__cls-1" data-name="Rectangle 705" transform="translate(624.072 268)"><rect width="37.472" height="26.543" class="prefix__cls-4" rx="2"/><rect width="35.472" height="24.543" x="1" y="1" class="prefix__cls-3" rx="1"/></g><g id="prefix__Rectangle_706" class="prefix__cls-1" data-name="Rectangle 706" transform="translate(620.949 289.859)"><rect width="43.718" height="7.807" class="prefix__cls-4" rx="2"/><rect width="41.718" height="5.807" x="1" y="1" class="prefix__cls-3" rx="1"/></g><g id="prefix__Rectangle_707" class="prefix__cls-1" data-name="Rectangle 707" transform="translate(621 276.333)"><rect width="18.667" height="24" class="prefix__cls-4" rx="2"/><rect width="16.667" height="22" x="1" y="1" class="prefix__cls-3" rx="1"/></g><g id="prefix__Rectangle_708" class="prefix__cls-1" data-name="Rectangle 708" transform="translate(633 284.333)"><rect width="13.333" height="18.667" class="prefix__cls-4" rx="2"/><rect width="11.333" height="16.667" x="1" y="1" class="prefix__cls-3" rx="1"/></g><rect id="prefix__Rectangle_709" width="2.667" height="2.667" class="prefix__cls-2" data-name="Rectangle 709" rx="1.333" transform="translate(638.334 296.333)"/><rect id="prefix__Rectangle_721" width="2.667" height="2.667" class="prefix__cls-2" data-name="Rectangle 721" rx="1.333" transform="translate(641.334 270.333)"/><rect id="prefix__Rectangle_710" width="2.667" height="2.667" class="prefix__cls-2" data-name="Rectangle 710" rx="1.333" transform="translate(629 293.667)"/><path id="prefix__Rectangle_733" d="M0 0h56v56H0z" class="prefix__cls-3" data-name="Rectangle 733" transform="translate(614 256)"/></g></svg>